<svg
  xmlns="http://www.w3.org/2000/svg"
  xml:space="preserve"
  style="enable-background: new 0 0 100 100"
  viewBox="0 0 100 100"
>
  <path
    d="m80.2 94.3-.4-.1s-.4-.1-.5-.2c-.1 0-.4-.2-.5-.2L53.3 78.5c-1-.6-2.2-.9-3.4-.9-1.2 0-2.4.3-3.4.9L20.9 93.9c-.3.2-.7.3-1.1.4H19c-.4-.1-.8-.2-1.2-.4l-.1-.1c-.8-.4-1.4-1.2-1.6-2.1-.1-.3-.1-.6-.1-.9V8.7c0-.2.1-.4.1-.6.2-.7.7-1.3 1.3-1.8.1 0 .2-.1.4-.2.3-.1.5-.2.8-.3.2 0 .4-.1.7-.1H80.9c.2 0 .4.1.6.1.1 0 .2.1.3.1.2.1.4.2.5.3.1.1.2.1.3.2.3.3.6.6.8 1 .2.4.3.8.4 1.2v82.2c0 1.2-.6 2.3-1.6 3-.1 0-.2.1-.3.1-.1 0-.1.1-.2.1s-.2.1-.3.1c-.1 0-.5.1-.5.1h-.5l-.2.1zm-7.8-6.1c1.1.6 2.2.9 3.4.9 1.2 0 2.3-.3 3.3-.9l.1-.1c.5-.3 1-.7 1.4-1.2.4-.4.7-.9 1-1.4.6-1.1.9-2.2.8-3.4V13.5c0-.9-.2-1.8-.5-2.6s-.8-1.5-1.5-2.2c-1.3-1.3-3-2-4.8-2H24.2c-1 0-1.8.3-2.1.4-1 .3-1.9.9-2.6 1.6-1.3 1.3-2 3-2 4.8v68.7c0 1.9.8 3.8 2.2 5.1.5.4.9.8 1.5 1 1 .5 2.1.8 3.2.8 1.2 0 2.3-.3 3.3-.9l21.5-12.9.2-.1c.2-.1.5-.2.7-.2.1 0 .3 0 .4.1.1 0 .1 0 .2.1.1 0 .1.1.2.1l1.4.9h.1l20 12z"
  />
  <path
    d="M80.7 0H19.3c-.6 0-1.2.1-1.8.2-.7.2-1.4.4-2.1.7-.4.2-.8.4-1.1.6-1.7 1.1-2.9 2.8-3.5 4.8-.2.6-.3 1.1-.4 1.7 0 .3 0 .6-.1.9v81.8c0 .8.1 1.6.3 2.4.6 2.3 2.1 4.4 4.3 5.6 1 .6 2.2 1 3.4 1.1.4 0 .7.1 1.1.1.4 0 .7 0 1.1-.1 1.1-.2 2.3-.5 3.3-1.1l25.6-15.3c.2-.1.4-.2.6-.2.2 0 .4.1.6.2l16 9.6 9.6 5.8c.1 0 .1.1.2.1.3.2.6.3.9.4.1.1.3.1.4.1.2.1.5.2.7.2.2 0 .3.1.5.1s.4.1.7.1H82c.3 0 .5-.1.8-.2.1 0 .3 0 .4-.1.3-.1.6-.2.8-.3.1 0 .2-.1.3-.1.4-.2.7-.3 1.1-.5 2.8-1.7 4.5-4.7 4.4-8V9c0-.3 0-.6-.1-.9-.1-1.2-.5-2.3-1-3.3-.6-1-1.3-1.9-2.2-2.6-.2-.2-.5-.4-.7-.5-.5-.3-1-.6-1.5-.8-.3-.1-.5-.2-.8-.3-.6-.2-1.1-.3-1.7-.4-.5-.2-.8-.2-1.1-.2zM24.3 83.5c-.2 0-.3 0-.5-.1-.1-.1-.2-.1-.3-.2-.3-.2-.4-.6-.4-.9V13.5c0-.3.1-.6.3-.8.1-.1.3-.2.4-.2.1 0 .2-.1.3-.1h51.6c.3 0 .6.1.8.3.1.1.2.2.2.3.1.1.1.3.1.4v68.8c0 .2 0 .4-.1.6-.1.1-.1.2-.2.3-.1.1-.2.2-.3.2-.1.1-.3.1-.5.1s-.3 0-.5-.1l-10.7-6.4-10.7-6.4c-.3-.2-.6-.3-.9-.5l-.9-.3c-.6-.2-1.3-.3-1.9-.3-1.2 0-2.3.3-3.4.9-.1.1-.3.1-.4.2l-6.1 3.7-15.3 9.2c-.3.1-.4.1-.6.1z"
  />
</svg>
