<?xml version="1.0" encoding="utf-8"?>
<!-- Generator: Adobe Illustrator 24.0.1, SVG Export Plug-In . SVG Version: 6.00 Build 0)  -->
<svg version="1.1" id="Layer_1" xmlns="http://www.w3.org/2000/svg" xmlns:xlink="http://www.w3.org/1999/xlink" x="0px" y="0px"
	 viewBox="0 0 100 100" style="enable-background:new 0 0 100 100;" xml:space="preserve">
<style type="text/css">
	.st0{fill-rule:evenodd;clip-rule:evenodd;}
</style>
<path class="st0" d="M223.2-66.6h76v100l-9.6-5.8l-28.3-17l-28.5,17l-9.6,5.8C223.2,33.4,223.2-66.6,223.2-66.6z M235.9-53.9V11
	L258-2.3l3.3-2l3.3,2L286.7,11v-64.9C286.7-53.9,235.9-53.9,235.9-53.9z"/>
<path d="M89.7,9v81.9c0,3.3-1.7,6.4-4.6,8c-2.7,1.6-6.1,1.6-8.9,0L50.6,83.4c-0.4-0.2-0.8-0.2-1.1,0L23.9,98.8
	c-2.7,1.6-6.1,1.6-8.8,0c-2.9-1.6-4.7-4.7-4.7-8V9c0-4.9,4-8.9,9-9h61.4C85.6,0,89.6,4,89.7,9L89.7,9z"/>
</svg>
