<svg
  version="1.1"
  id="Layer_1"
  xmlns="http://www.w3.org/2000/svg"
  x="0"
  y="0"
  viewBox="0 0 100 100"
  style="enable-background: new 0 0 100 100"
  xml:space="preserve"
>
  <style>
    .st1 {
      fill: #3f3d56;
    }
    .st2 {
      fill: #e6e6e6;
    }
    .st3 {
      fill: #fff;
    }
    .st4 {
      fill: #6c63ff;
    }
    .st5 {
      fill: #2f2e41;
    }
    .st6 {
      fill: #ffb6b6;
    }
    .st7 {
      fill: #ffb8b8;
    }
  </style>
  <path d="M72.8 22.9H7.2c-.1 0-.3-.1-.2-.3 0-.1.1-.2.2-.2h65.6c.1 0 .3.1.2.3 0 .1-.1.2-.2.2z" style="fill: #cacaca" />
  <circle class="st1" cx="11.5" cy="19.5" r="1.5" />
  <circle class="st1" cx="16.7" cy="19.5" r="1.5" />
  <circle class="st1" cx="21.8" cy="19.5" r="1.5" />
  <path
    class="st1"
    d="M69.7 18.4H66c-.2 0-.3.1-.3.3 0 .1.1.3.3.3h3.7c.2 0 .3-.1.3-.3-.1-.2-.2-.3-.3-.3zM69.7 19.4H66c-.2 0-.3.1-.3.3 0 .1.1.3.3.3h3.7c.2 0 .3-.1.3-.3-.1-.1-.2-.3-.3-.3zM69.7 20.5H66c-.2 0-.3.1-.3.3 0 .1.1.3.3.3h3.7c.2 0 .3-.1.3-.3-.1-.2-.2-.3-.3-.3z"
  />
  <path
    class="st2"
    d="m25.2 69.1.1-32.4c0-1.4 1.1-2.5 2.5-2.5l24.5.1c1.4 0 2.5 1.1 2.5 2.5l-.1 32.4c0 1.4-1.1 2.5-2.5 2.5l-24.5-.1c-1.4 0-2.5-1.2-2.5-2.5z"
  />
  <path
    class="st3"
    d="m27.1 59.3.1-20.8c0-1.3 1-2.3 2.3-2.3l21 .1c1.3 0 2.3 1 2.3 2.3l-.1 28.8c0 1.3-1 2.3-2.3 2.3h-13c-5.7-.1-10.3-4.7-10.3-10.4z"
  />
  <path
    class="st4"
    d="M48.2 52.4H31.8c-.5 0-1-.4-1-1 0-.5.4-1 1-1h16.4c.5 0 1 .4 1 1s-.5 1-1 1zM35.4 47h-3.6c-.5 0-1-.4-1-1 0-.5.4-1 1-1h3.6c.5 0 1 .4 1 1s-.5 1-1 1zM48.2 61.1H31.8c-.5 0-1-.4-1-1 0-.5.4-1 1-1h16.4c.5 0 1 .4 1 1 0 .5-.5 1-1 1zM48.2 56.7H31.8c-.5 0-1-.4-1-1 0-.5.4-1 1-1h16.4c.5 0 1 .4 1 1s-.5 1-1 1z"
  />
  <circle class="st4" cx="3.9" cy="78.1" r="3.9" />
  <path
    class="st3"
    d="M3.4 80.1c-.1 0-.3-.1-.3-.2L2 78.5c-.1-.2-.1-.5.1-.6.2-.1.5-.1.6.1l.7.9 1.8-2.7c.1-.2.4-.2.6-.1.2.1.2.4.1.6l-2.1 3.2c-.1.1-.3.2-.4.2z"
  />
  <path
    class="st5"
    d="M3.7 69.5H4v.8h-.3zM4 67.9h-.3v-1.6H4v1.6zm0-3.3h-.3V63H4v1.6zm0-3.2h-.3v-1.6H4v1.6zm0-3.2h-.3v-1.6H4v1.6zM4 55h-.3v-1.6H4V55zM4 51.7h-.3v-1h1v.3H4zM18 51h-1.7v-.3H18v.3zm-3.4 0H13v-.3h1.7v.3zm-3.3 0H9.6v-.3h1.7v.3zM8 51H6.3v-.3H8v.3zM19.6 50.7h.8v.3h-.8zM94.4 61h.3v.8h-.3zM94.7 59.1h-.3v-1.9h.3v1.9zm0-3.7h-.3v-1.9h.3v1.9zM94.7 51.7h-.3V51h-.7v-.3h1zM91.9 51h-1.8v-.3h1.8v.3zm-3.5 0h-1.8v-.3h1.8v.3zm-3.5 0h-1.8v-.3h1.8v.3zm-3.5 0h-1.8v-.3h1.8v.3zm-3.5 0h-1.8v-.3h1.8v.3zm-3.5 0h-1.8v-.3h1.8v.3zm-3.5 0h-1.8v-.3h1.8v.3zm-3.5 0h-1.8v-.3h1.8v.3zm-3.5 0h-1.8v-.3h1.8v.3zM59.5 50.7h.8v.3h-.8z"
  />
  <circle class="st4" cx="94.6" cy="68.2" r="3.9" />
  <path
    class="st3"
    d="m95.4 68.2.8-.8c.2-.2.2-.6 0-.8-.2-.2-.6-.2-.8 0l-.8.8-.8-.8c-.2-.2-.6-.2-.8 0-.2.2-.2.6 0 .8l.8.8-.7.8c-.2.2-.2.6 0 .8s.6.2.8 0l.8-.8.8.8c.2.2.6.2.8 0 .2-.2.2-.6 0-.8l-.9-.8z"
  />
  <path class="st5" d="m83.6 44.8.9 5 8-4.3z" />
  <path class="st6" d="m82.7 76-1.7-.1-.6-6.5 2.5.1z" />
  <path
    class="st5"
    d="M82.8 57.3c3.1-.9 3.7-4.9 5.4-5.8 0-2.1.1-8.6-2-8.5-1.2.1-7.7 12-8 14-.5 3.7 2.2 13 1.9 13.7l3.2.2v-.3c.1-.7.6-2.8 0-3.1l-.2-.1c0-.7.2-1.9-.5-2.2v-.1l.2-7.8zM83.5 77.4l-1.1.1-.3-1.1-.5 1.1-3 .2c-.4 0-.7-.3-.7-.6 0-.2.1-.4.3-.6l2.3-1.8-.1-1.1h2.5l.6 3.8z"
  />
  <path class="st6" d="m95.5 64.2 1.7.2 1.3-6.5-2.5-.2z" />
  <path
    class="st5"
    d="M94.8 48c-1.5 2.6-4.2 3.3-7 3.7-1.2-1.7-3.1-4.1-1.3-5.2 1-.6 9.6-5.6 10.9-4.2 3.5 3.9 1 16.4 1.2 16.1h-2.7l-.2-.2c-.4-.5-.5-1.3-.3-1.9l.1-.2c-.4-.6-.5-1.3-.1-2V54l-.6-6zM95.4 61.9l2.5.3-.2 1.1 2.1 2.1c.3.3.3.7 0 1-.2.2-.4.2-.6.2l-2.9-.5L96 65l-.4 1-1.1-.2.9-3.9z"
  />
  <path
    class="st4"
    d="M88.9 26.9h-1.2c-.5 0-.9.2-1.2.6l-.8 1.2-2.1.4c-1.5.9-2.1 2.8-1.5 4.4 1.5 3.8 2.2 11.1.8 14.3 0 0 8.7.8 10.9-1.8 2.2-2.6.4-15.4.4-15.4L91 28.8l-.8-1.2c-.4-.5-.8-.7-1.3-.7z"
  />
  <path class="st6" d="M94.3 49.4c.4-.4.4-1 0-1.4l-.1-.1 1.9-6.2-2.1-1.3-1.2 7.8c-.3.5-.1 1.1.4 1.3.3.3.8.2 1.1-.1z" />
  <path
    class="st4"
    d="m96.2 42.4-2.5-1 .1-1.3-3-6.6c-.6-1.2 0-2.7 1.2-3.2.1-.1.3-.1.4-.1 1.3-.3 2.6.5 3 1.8l2 7.9c.1 1.2-.1 2.1-1.2 2.5z"
  />
  <path
    class="st5"
    d="M92.7 23c0-2.4-1.9-4.3-4.3-4.3S84 20.6 84 23v2.7c0 .3.3.6.6.6h.1c.1-.3.2-.7.2-1.1.2.3.4.7.5 1.1H92c.3 0 .6-.3.6-.6.4-.7.6-1.5.1-2.7z"
  />
  <circle class="st7" cx="88.2" cy="23.1" r="3.2" />
  <path
    class="st5"
    d="M84.9 23.1c-.1-.1-.1-.2-.1-.3l.4-2.6c0-.1.1-.2.2-.2 1.9-.9 3.8-.9 5.8 0 .1 0 .2.1.2.3l.4 2c0 .1 0 .2-.1.2-.1.1-.1 1.5-.2 1.5.1-.9-.1-1.3-.8-.9-.1 0-.2-.1-.3-.2l-.3-.6c0-.1-.2-.1-.3-.1-.1 0-.1.1-.1.2l-.1.4c0 .2-.2.3-.3.3-1.1.6-2.6.4-4.2 0 0 .1-.1.1-.2 0z"
  />
  <path class="st1" d="M90.7 40.7h-5.2c-.4 0-.7-.3-.7-.7v-5.6c0-.4.3-.7.7-.7h5.2c.4 0 .7.3.7.7V40c0 .4-.3.7-.7.7z" />
  <circle class="st2" cx="85.7" cy="34.6" r=".4" />
  <circle class="st1" cx="85.7" cy="34.6" r=".2" />
  <path
    class="st7"
    d="M91.6 36.9c-.4.5-1.2.5-1.7.1-.1 0-.1-.1-.1-.2l-4.6 1.3-.7-1.6 5.6-1.4c.5-.4 1.3-.2 1.6.3.3.5.3 1.1-.1 1.5z"
  />
  <path
    class="st4"
    d="m85.7 38.2-1.3.4c-1.4 1.5-1.9.4-3.6.3-.3 0-.6-.3-.7-.8-.2-.7-.2-1.4.1-2.1l2.3-5.8 1-.8 1.4 1.6-1 4.5 1.7.9.1 1.8z"
  />
</svg>
