<svg
  version="1.1"
  id="Layer_1"
  xmlns="http://www.w3.org/2000/svg"
  xmlns:xlink="http://www.w3.org/1999/xlink"
  x="0"
  y="0"
  viewBox="0 0 100 100"
  style="enable-background: new 0 0 100 100"
  xml:space="preserve"
>
  <style>
    .st1 {
      fill: #db4437;
    }
    .st5 {
      fill: #0f9d58;
    }
    .st10 {
      fill: #ffcd40;
    }
    .st30 {
      fill: #fff;
      fill-opacity: 0.2;
    }
  </style>
  <defs><circle id="SVGID_1_" cx="50" cy="50" r="50" /></defs>
  <clipPath id="SVGID_2_"><use xlink:href="#SVGID_1_" style="overflow: visible" /></clipPath>
  <g style="clip-path: url(#SVGID_2_)">
    <path class="st1" d="M7.9 0v61.4h22.4L50 27.3h50V0H7.9z" />
    <linearGradient
      id="SVGID_3_"
      gradientUnits="userSpaceOnUse"
      x1="741.492"
      y1="-1205.319"
      x2="860.811"
      y2="-1135.621"
      gradientTransform="matrix(.25 0 0 -.25 -173.25 -263.25)"
    >
      <stop offset="0" style="stop-color: #a52714; stop-opacity: 0.6" />
      <stop offset=".66" style="stop-color: #a52714; stop-opacity: 0" />
    </linearGradient>
    <path d="M7.9 0v61.4h22.4L50 27.3h50V0H7.9z" style="fill: url(#SVGID_3_)" />
  </g>
  <defs><circle id="SVGID_4_" cx="50" cy="50" r="50" /></defs>
  <clipPath id="SVGID_5_"><use xlink:href="#SVGID_4_" style="overflow: visible" /></clipPath>
  <path
    d="M30.9 61.2 8.2 22.4l-.3.6 22.5 38.5.5-.3z"
    style="clip-path: url(#SVGID_5_); fill: #3e2723; fill-opacity: 0.15"
  />
  <defs><circle id="SVGID_6_" cx="50" cy="50" r="50" /></defs>
  <clipPath id="SVGID_7_"><use xlink:href="#SVGID_6_" style="overflow: visible" /></clipPath>
  <g style="clip-path: url(#SVGID_7_)">
    <path class="st5" d="M0 100h47.6l22.1-22.1V61.4H30.3L0 9.4V100z" />
    <linearGradient
      id="SVGID_8_"
      gradientUnits="userSpaceOnUse"
      x1="926.803"
      y1="-1408.665"
      x2="794.226"
      y2="-1331.015"
      gradientTransform="matrix(.25 0 0 -.25 -173.25 -263.25)"
    >
      <stop offset="0" style="stop-color: #055524; stop-opacity: 0.4" />
      <stop offset=".33" style="stop-color: #055524; stop-opacity: 0" />
    </linearGradient>
    <path d="M0 100h47.6l22.1-22.1V61.4H30.3L0 9.4V100z" style="fill: url(#SVGID_8_)" />
  </g>
  <defs><circle id="SVGID_9_" cx="50" cy="50" r="50" /></defs>
  <clipPath id="SVGID_10_"><use xlink:href="#SVGID_9_" style="overflow: visible" /></clipPath>
  <path
    d="m69.2 62.1-.5-.3L46.9 100h.7l21.6-37.9z"
    style="clip-path: url(#SVGID_10_); fill: #263238; fill-opacity: 0.15"
  />
  <defs><circle id="SVGID_11_" cx="50" cy="50" r="50" /></defs>
  <clipPath id="SVGID_12_"><use xlink:href="#SVGID_11_" style="overflow: visible" /></clipPath>
  <g style="clip-path: url(#SVGID_12_)">
    <defs><path id="SVGID_13_" d="M0 100h47.6l22.1-22.1V61.4H30.3L0 9.4z" /></defs>
    <clipPath id="SVGID_14_"><use xlink:href="#SVGID_13_" style="overflow: visible" /></clipPath>
    <g style="clip-path: url(#SVGID_14_)">
      <path class="st10" d="m50 27.3 19.7 34.1L47.6 100H100V27.3H50z" />
      <linearGradient
        id="SVGID_15_"
        gradientUnits="userSpaceOnUse"
        x1="951.763"
        y1="-1148.01"
        x2="985.147"
        y2="-1294.206"
        gradientTransform="matrix(.25 0 0 -.25 -173.25 -263.25)"
      >
        <stop offset="0" style="stop-color: #ea6100; stop-opacity: 0.3" />
        <stop offset=".66" style="stop-color: #ea6100; stop-opacity: 0" />
      </linearGradient>
      <path d="m50 27.3 19.7 34.1L47.6 100H100V27.3H50z" style="fill: url(#SVGID_15_)" />
    </g>
  </g>
  <defs><circle id="SVGID_16_" cx="50" cy="50" r="50" /></defs>
  <clipPath id="SVGID_17_"><use xlink:href="#SVGID_16_" style="overflow: visible" /></clipPath>
  <g style="clip-path: url(#SVGID_17_)">
    <path class="st10" d="m50 27.3 19.7 34.1L47.6 100H100V27.3H50z" />
    <linearGradient
      id="SVGID_18_"
      gradientUnits="userSpaceOnUse"
      x1="951.763"
      y1="-1148.01"
      x2="985.147"
      y2="-1294.206"
      gradientTransform="matrix(.25 0 0 -.25 -173.25 -263.25)"
    >
      <stop offset="0" style="stop-color: #ea6100; stop-opacity: 0.3" />
      <stop offset=".66" style="stop-color: #ea6100; stop-opacity: 0" />
    </linearGradient>
    <path d="m50 27.3 19.7 34.1L47.6 100H100V27.3H50z" style="fill: url(#SVGID_18_)" />
  </g>
  <g>
    <defs><circle id="SVGID_19_" cx="50" cy="50" r="50" /></defs>
    <clipPath id="SVGID_20_"><use xlink:href="#SVGID_19_" style="overflow: visible" /></clipPath>
    <g style="clip-path: url(#SVGID_20_)">
      <defs><path id="SVGID_21_" d="m50 27.3 19.7 34.1L47.6 100H100V27.3z" /></defs>
      <clipPath id="SVGID_22_"><use xlink:href="#SVGID_21_" style="overflow: visible" /></clipPath>
      <g style="clip-path: url(#SVGID_22_)">
        <path class="st1" d="M7.9 0v61.4h22.4L50 27.3h50V0H7.9z" />
        <linearGradient
          id="SVGID_23_"
          gradientUnits="userSpaceOnUse"
          x1="741.492"
          y1="-1205.319"
          x2="860.811"
          y2="-1135.621"
          gradientTransform="matrix(.25 0 0 -.25 -173.25 -263.25)"
        >
          <stop offset="0" style="stop-color: #a52714; stop-opacity: 0.6" />
          <stop offset=".66" style="stop-color: #a52714; stop-opacity: 0" />
        </linearGradient>
        <path d="M7.9 0v61.4h22.4L50 27.3h50V0H7.9z" style="fill: url(#SVGID_23_)" />
      </g>
    </g>
  </g>
  <g>
    <defs><circle id="SVGID_24_" cx="50" cy="50" r="50" /></defs>
    <clipPath id="SVGID_25_"><use xlink:href="#SVGID_24_" style="overflow: visible" /></clipPath>
    <radialGradient
      id="SVGID_26_"
      cx="889.176"
      cy="-1212.948"
      r="84.078"
      gradientTransform="matrix(.5682 0 0 -.5682 -457.386 -661.932)"
      gradientUnits="userSpaceOnUse"
    >
      <stop offset="0" style="stop-color: #3e2723; stop-opacity: 0.2" />
      <stop offset="1" style="stop-color: #3e2723; stop-opacity: 0" />
    </radialGradient>
    <path d="M50 27.3v11.9l44.5-11.9H50z" style="clip-path: url(#SVGID_25_); fill: url(#SVGID_26_)" />
  </g>
  <g>
    <defs><circle id="SVGID_27_" cx="50" cy="50" r="50" /></defs>
    <clipPath id="SVGID_28_"><use xlink:href="#SVGID_27_" style="overflow: visible" /></clipPath>
    <g style="clip-path: url(#SVGID_28_)">
      <defs><path id="SVGID_29_" d="M7.9 0v22.9l22.4 38.5L50 27.3h50V0z" /></defs>
      <clipPath id="SVGID_30_"><use xlink:href="#SVGID_29_" style="overflow: visible" /></clipPath>
      <g style="clip-path: url(#SVGID_30_)">
        <path class="st5" d="M0 100h47.6l22.1-22.1V61.4H30.3L0 9.4V100z" />
        <linearGradient
          id="SVGID_31_"
          gradientUnits="userSpaceOnUse"
          x1="926.803"
          y1="-1408.665"
          x2="794.226"
          y2="-1331.015"
          gradientTransform="matrix(.25 0 0 -.25 -173.25 -263.25)"
        >
          <stop offset="0" style="stop-color: #055524; stop-opacity: 0.4" />
          <stop offset=".33" style="stop-color: #055524; stop-opacity: 0" />
        </linearGradient>
        <path d="M0 100h47.6l22.1-22.1V61.4H30.3L0 9.4V100z" style="fill: url(#SVGID_31_)" />
      </g>
    </g>
  </g>
  <g>
    <defs><circle id="SVGID_32_" cx="50" cy="50" r="50" /></defs>
    <clipPath id="SVGID_33_"><use xlink:href="#SVGID_32_" style="overflow: visible" /></clipPath>
    <radialGradient
      id="SVGID_34_"
      cx="818.875"
      cy="-1205.52"
      r="78.044"
      gradientTransform="matrix(.5682 0 0 -.5682 -457.386 -661.932)"
      gradientUnits="userSpaceOnUse"
    >
      <stop offset="0" style="stop-color: #3e2723; stop-opacity: 0.2" />
      <stop offset="1" style="stop-color: #3e2723; stop-opacity: 0" />
    </radialGradient>
    <path d="m7.9 23 32.5 32.5-10.1 5.9L7.9 23z" style="clip-path: url(#SVGID_33_); fill: url(#SVGID_34_)" />
  </g>
  <g>
    <defs><circle id="SVGID_35_" cx="50" cy="50" r="50" /></defs>
    <clipPath id="SVGID_36_"><use xlink:href="#SVGID_35_" style="overflow: visible" /></clipPath>
    <radialGradient
      id="SVGID_37_"
      cx="892.844"
      cy="-1253.138"
      r="87.87"
      gradientTransform="matrix(.5682 0 0 -.5682 -457.386 -661.932)"
      gradientUnits="userSpaceOnUse"
    >
      <stop offset="0" style="stop-color: #263238; stop-opacity: 0.2" />
      <stop offset="1" style="stop-color: #263238; stop-opacity: 0" />
    </radialGradient>
    <path d="m47.6 99.9 11.9-44.4 10.1 5.9-22 38.5z" style="clip-path: url(#SVGID_36_); fill: url(#SVGID_37_)" />
  </g>
  <g>
    <defs><circle id="SVGID_38_" cx="50" cy="50" r="50" /></defs>
    <clipPath id="SVGID_39_"><use xlink:href="#SVGID_38_" style="overflow: visible" /></clipPath>
    <g style="clip-path: url(#SVGID_39_)">
      <circle cx="50" cy="50" r="22.7" style="fill: #f1f1f1" />
      <circle cx="50" cy="50" r="18.2" style="fill: #4285f4" />
    </g>
  </g>
  <g>
    <defs><circle id="SVGID_40_" cx="50" cy="50" r="50" /></defs>
    <clipPath id="SVGID_41_"><use xlink:href="#SVGID_40_" style="overflow: visible" /></clipPath>
    <g style="clip-path: url(#SVGID_41_)">
      <path
        d="M50 26.7c-12.6 0-22.7 10.2-22.7 22.7v.6c0-12.6 10.2-22.7 22.7-22.7h50v-.6H50z"
        style="fill: #3e2723; fill-opacity: 0.2"
      />
      <path
        d="M69.7 61.4c-4 6.7-11.3 11.3-19.7 11.3-8.4 0-15.7-4.6-19.7-11.4L0 9.4v.6l30.3 52c3.9 6.8 11.3 11.4 19.7 11.4 8.4 0 15.7-4.6 19.7-11.4v-.6z"
        style="fill: #fff; fill-opacity: 0.1"
      />
      <path
        d="M50.6 27.3h-.3c12.4.1 22.4 10.2 22.4 22.7s-10 22.6-22.4 22.7h.3c12.6 0 22.7-10.2 22.7-22.7S63.1 27.3 50.6 27.3z"
        style="opacity: 0.1; fill: #3e2723; enable-background: new"
      />
      <path
        class="st30"
        d="M69.9 62.1c1.9-3.3 3.1-7.2 3.1-11.3 0-2.4-.4-4.7-1.1-6.9.5 1.9.9 4 .9 6.1 0 4.1-1.1 8-3.1 11.3L47.6 100h.7l21.6-37.9z"
      />
    </g>
  </g>
  <g>
    <defs><circle id="SVGID_42_" cx="50" cy="50" r="50" /></defs>
    <clipPath id="SVGID_43_"><use xlink:href="#SVGID_42_" style="overflow: visible" /></clipPath>
    <g style="clip-path: url(#SVGID_43_)">
      <path
        class="st30"
        d="M50 .6c27.5 0 49.8 22.2 50 49.7V50c0-27.6-22.4-50-50-50S0 22.4 0 50v.3C.2 22.8 22.5.6 50 .6z"
      />
      <path
        d="M50 99.4c27.5 0 49.8-22.2 50-49.7v.3c0 27.6-22.4 50-50 50S0 77.6 0 50v-.3c.2 27.5 22.5 49.7 50 49.7z"
        style="fill: #3e2723; fill-opacity: 0.15"
      />
    </g>
  </g>
  <radialGradient
    id="SVGID_44_"
    cx="831.286"
    cy="-1189.014"
    r="176.746"
    gradientTransform="matrix(.5682 0 0 -.5682 -457.386 -661.932)"
    gradientUnits="userSpaceOnUse"
  >
    <stop offset="0" style="stop-color: #fff; stop-opacity: 0.1" />
    <stop offset="1" style="stop-color: #fff; stop-opacity: 0" />
  </radialGradient>
  <circle cx="50" cy="50" r="50" style="fill: url(#SVGID_44_)" />
</svg>
