<svg
  xmlns="http://www.w3.org/2000/svg"
  viewBox="0 0 100 100"
  style="enable-background: new 0 0 100 100"
  xml:space="preserve"
>
  <radialGradient
    id="a"
    cx="-15631.162"
    cy="-8799.094"
    r="45.821"
    fx="-15634.085"
    fy="-8799.094"
    gradientTransform="matrix(.76 .03 -.05 1.12 11536.53 10354.84)"
    gradientUnits="userSpaceOnUse"
  >
    <stop offset=".1" style="stop-color: #ffea00" />
    <stop offset=".17" style="stop-color: #ffde00" />
    <stop offset=".28" style="stop-color: #ffbf00" />
    <stop offset=".43" style="stop-color: #ff8e00" />
    <stop offset=".77" style="stop-color: #ff272d" />
    <stop offset=".87" style="stop-color: #e0255a" />
    <stop offset=".95" style="stop-color: #cc2477" />
    <stop offset="1" style="stop-color: #c42482" />
  </radialGradient>
  <path
    d="M79.8 9.3c-2.4 2.8-3.6 9.2-1.1 15.7s6.3 5 8.6 11.6C90.5 45.3 89 57 89 57s3.7 10.8 6.3-.7c5.8-21.6-15.5-41.7-15.5-47z"
    style="fill: url(#a)"
  />
  <radialGradient
    id="b"
    cx="-8001.608"
    cy="-8340.198"
    r="80.409"
    gradientTransform="matrix(1.23 0 0 1.23 9907.08 10274.03)"
    gradientUnits="userSpaceOnUse"
  >
    <stop offset="0" style="stop-color: #00ccda" />
    <stop offset=".22" style="stop-color: #0083ff" />
    <stop offset=".26" style="stop-color: #007af9" />
    <stop offset=".33" style="stop-color: #0060e8" />
    <stop offset=".33" style="stop-color: #005fe7" />
    <stop offset=".44" style="stop-color: #2639ad" />
    <stop offset=".52" style="stop-color: #401e84" />
    <stop offset=".57" style="stop-color: #4a1475" />
  </radialGradient>
  <path
    d="M50.1 99C75 99 95.2 78.7 95.2 53.7S75.1 8.4 50.2 8.4 5.1 28.7 5.1 53.7C5 78.8 25.2 99 50.1 99z"
    style="fill: url(#b)"
  />
  <linearGradient
    id="c"
    gradientUnits="userSpaceOnUse"
    x1="56.498"
    y1="-117.894"
    x2="37.042"
    y2="-181.536"
    gradientTransform="translate(0 192)"
  >
    <stop offset="0" style="stop-color: #000f43; stop-opacity: 0.4" />
    <stop offset=".48" style="stop-color: #001962; stop-opacity: 0.17" />
    <stop offset="1" style="stop-color: #002079; stop-opacity: 0" />
  </linearGradient>
  <path
    d="M83.9 81.7c-1 .7-2 1.3-3.1 1.8 1.4-2.1 2.7-4.2 3.9-6.4 1-1.1 1.8-2.1 2.6-3.2.3-.5.7-1.2 1.2-2 2.5-4.6 5.3-11.9 5.4-19.5v-.6c0-1.9-.2-3.8-.6-5.7 0 .1 0 .3.1.4 0-.1 0-.2-.1-.3 0 .2.1.4.1.6.5 4.4.1 8.7-1.7 11.8l-.1.1c1-4.8 1.3-10.1.2-15.4 0 0-.4-2.6-3.6-10.4-1.8-4.5-5.1-8.2-7.9-10.9-2.5-3.1-4.8-5.2-6-6.5-2.6-2.8-3.7-4.8-4.2-6.2-.4-.2-5.4-5.1-5.8-5.2-2.2 3.4-9.1 14-5.8 23.9 1.5 4.5 5.2 9.1 9.2 11.8.2.2 2.3 2.5 3.4 7.8 1.1 5.5.5 9.7-1.7 16.1-2.6 5.5-9.1 11-15.3 11.6-13.2 1.2-18-6.6-18-6.6 4.7 1.9 9.9 1.5 13.1-.5 3.2-2 5.1-3.4 6.7-2.9 1.5.6 2.8-1.1 1.7-2.8-1.7-2.7-4.9-4.1-8.1-3.5-3.2.5-6.1 3-10.3.6-.3-.2-.5-.3-.8-.5-.3-.2.9.3.6.1-.8-.4-2.3-1.4-2.6-1.7-.1-.1.6.2.6.2-3.9-3.2-3.4-5.4-3.3-6.8.1-1.1.8-2.5 2-3.1.6.3.9.6.9.6s-.2-.5-.4-.8h.1c.5.2 1.5.8 2.1 1.2.7.5.9 1 .9 1s.2-.1 0-.5c-.1-.2-.3-.8-1-1.3.4.2.8.5 1.2.8.2-.7.6-1.5.5-2.9 0-1 0-1.2-.2-1.6-.2-.3.1-.4.3-.1 0-.3-.1-.5-.2-.8.3-1.1 6.9-4.1 7.4-4.5.8-.6 1.5-1.3 1.9-2.1.4-.6.6-1.4.7-2.7 0-.9-.4-1.5-7.1-2.2-1.8-.2-2.9-1.5-3.5-2.7-.1-.3-.2-.5-.3-.7l-.3-.9c1.1-3.1 2.9-5.8 5.6-7.8.1-.1-.6 0-.4-.1.2-.2 1.3-.6 1.5-.7.3-.1-1.1-.7-2.3-.6-1.2.1-1.5.3-2.1.6.3-.3 1.1-.6.9-.6-1.3.2-3 1-4.4 1.8 0-.2 0-.3.1-.4-.7.3-2.3 1.4-2.7 2.4v-.5c-.5.4-.9.9-1.3 1.4-3.8-1.5-7.1-1.6-10-.9-.6-.6-.9-.2-2.3-3.3-.1-.2.1.2 0 0-.2-.6.1.8 0 0-2.4 1.9-5.5 4-7 5.5 0 .1 1.7-.5 0 0-.6.2-.6.5-.7 3.8v.8c-1.2 1.5-2 2.8-2.3 3.5-1.4 2.4-3.1 6.5-4.7 13.1.7-1.8 1.6-3.5 2.6-5.1-1.4 3.5-2.7 9-3 17.4.3-1.7.8-3.5 1.3-5.1-.3 7 .9 14 3.5 20.4.9 2.3 2.5 5.8 5.2 9.7 8.4 8.8 20.2 14.3 33.3 14.3 13.7 0 26-6 34.4-15.5z"
    style="fill: url(#c)"
  />
  <radialGradient
    id="d"
    cx="-8978.582"
    cy="-7223.677"
    r="27.123"
    gradientTransform="matrix(1.22 .12 -.12 1.22 10186.64 9956.76)"
    gradientUnits="userSpaceOnUse"
  >
    <stop offset="0" style="stop-color: #ffea00" />
    <stop offset=".5" style="stop-color: #ff272d" />
    <stop offset="1" style="stop-color: #c42482" />
  </radialGradient>
  <path d="M73.8 88.1c16.6-1.9 23.9-19 14.5-19.3C79.8 68.5 66 89 73.8 88.1z" style="fill: url(#d)" />
  <radialGradient
    id="e"
    cx="-8981.036"
    cy="-7249.685"
    r="45.293"
    gradientTransform="matrix(1.22 .12 -.12 1.22 10186.64 9956.76)"
    gradientUnits="userSpaceOnUse"
  >
    <stop offset="0" style="stop-color: #ffe900" />
    <stop offset=".16" style="stop-color: #ffaf0e" />
    <stop offset=".32" style="stop-color: #ff7a1b" />
    <stop offset=".47" style="stop-color: #ff4e26" />
    <stop offset=".62" style="stop-color: #ff2c2e" />
    <stop offset=".76" style="stop-color: #ff1434" />
    <stop offset=".89" style="stop-color: #ff0538" />
    <stop offset="1" style="stop-color: #ff0039" />
  </radialGradient>
  <path d="M89.5 65.3c11.4-6.6 8.4-20.9 8.4-20.9s-4.4 5.1-7.4 13.2c-2.9 8.1-7.9 11.7-1 7.7z" style="fill: url(#e)" />
  <radialGradient
    id="f"
    cx="-8974.63"
    cy="-7207.699"
    r="41.561"
    gradientTransform="matrix(1.22 .12 -.12 1.22 10186.64 9956.76)"
    gradientUnits="userSpaceOnUse"
  >
    <stop offset="0" style="stop-color: #ff272d" />
    <stop offset=".5" style="stop-color: #c42482" />
    <stop offset=".99" style="stop-color: #620700" />
  </radialGradient>
  <path d="M53.3 96.6c15.9 5.1 29.5-7.4 21.1-11.6-7.6-3.8-28.6 9.2-21.1 11.6z" style="fill: url(#f)" />
  <radialGradient
    id="g"
    cx="74.236"
    cy="-151.955"
    r="79.49"
    fx="77.079"
    fy="-153.36"
    gradientTransform="translate(0 192)"
    gradientUnits="userSpaceOnUse"
  >
    <stop offset=".16" style="stop-color: #ffea00" />
    <stop offset=".23" style="stop-color: #ffde00" />
    <stop offset=".37" style="stop-color: #ffbf00" />
    <stop offset=".54" style="stop-color: #ff8e00" />
    <stop offset=".76" style="stop-color: #ff272d" />
    <stop offset=".8" style="stop-color: #f92433" />
    <stop offset=".84" style="stop-color: #e91c45" />
    <stop offset=".89" style="stop-color: #cf0e62" />
    <stop offset=".94" style="stop-color: #b5007f" />
  </radialGradient>
  <path
    d="M90.7 71.4c.4-.5.9-2.3 1.4-3.1 2.8-4.5 2.8-8.1 2.8-8.2 1.7-8.5 1.5-11.9.5-18.3-.8-5.1-4.5-12.5-7.7-16.1-3.3-3.7-1-2.5-4.1-5.1-2.8-3.1-5.5-6.1-6.9-7.4C66 4.4 66.2 2.5 66.5 2.2c0 0-.1.1-.1.2-.1-.5-.2-.9-.2-.9s-5.8 5.8-7 15.4c-.8 6.3 1.6 12.9 5 17.1 1.8 2.2 3.8 4.2 6 5.9 2.6 3.7 4 8.3 4 13.2 0 12.3-10 22.3-22.3 22.3-1.7 0-3.4-.2-5-.6-5.8-1.1-9.2-4-10.9-6-1-1.1-1.4-2-1.4-2 5.2 1.9 11 1.5 14.5-.5s5.7-3.4 7.4-2.8c1.7.6 3.1-1.1 1.8-2.8-1.2-1.7-4.3-4.2-8.9-3.5-3.5.5-6.8 3-11.4.6-.3-.2-.6-.3-.9-.5-.3-.2 1 .3.7.1-.9-.4-2.5-1.4-2.9-1.7-.1-.1.7.2.6.2-4.3-3.2-3.8-5.4-3.7-6.7.1-1.1.9-2.5 2.2-3 .6.3 1 .6 1 .6s-.3-.5-.4-.8h.2c.5.2 1.7.8 2.3 1.2.8.5 1 1 1 1s.2-.1.1-.5c-.1-.2-.3-.8-1.1-1.3.5.2.9.5 1.3.8.2-.7.6-1.5.5-2.8-.1-1 0-1.2-.2-1.6-.2-.3.1-.4.4-.1 0-.3-.1-.5-.2-.7.4-1.1 7.7-4.1 8.2-4.4.9-.5 1.6-1.3 2.2-2.1.4-.6.7-1.4.8-2.6 0-.6-.1-1-2.1-1.4-1.2-.3-3-.5-5.7-.8-2-.2-3.2-1.5-3.9-2.7-.1-.3-.2-.5-.4-.7-.1-.3-.2-.6-.3-.8 1.2-3.2 3.4-5.9 6.2-7.7.2-.1-.7 0-.5-.1.2-.2 1.4-.6 1.7-.7.3-.1-1.2-.7-2.6-.6-1.4.1-1.6.3-2.4.6.3-.3 1.3-.6 1-.6-1.5.2-3.3 1-4.8 1.8 0-.2 0-.3.1-.4-.7.3-2.5 1.4-3 2.3v-.5c-.5.4-1 .9-1.5 1.4-4.2-1.5-7.9-1.6-11-.9-.7-.6-1.8-1.5-3.3-4.6-.1-.2-.2.4-.2.2-.6-1.4-1-3.7-.9-5.3 0 0-1.3.6-2.3 3-.2.4-.3.7-.4.9-.1.1.1-.8.1-.7-.2.3-.6.7-.9 1.3-.1.4-.3.6-.5 1.1v-.5c-.5 1-.9 2-1.3 3-.6 1.8-1.2 4.3-1.3 7.6v.7c-1.3 1.5-2.2 2.8-2.6 3.4-1.7 2.6-3.6 6.8-5.4 13.3.8-1.8 1.8-3.5 2.9-5.1-1.5 3.5-3 8.9-3.3 17.2.4-2.3.9-4 1.5-5.6-.3 5.6.4 12.5 3.9 20.3 2.1 4.6 6.9 13.9 18.7 21.1 0 0 4 3 10.9 5.2.5.2 1 .4 1.5.5-.2-.1-.3-.1-.5-.2 4.6 1.4 9.3 2.1 14.1 2.1 17.8 0 23.1-7.1 23.1-7.1h-.1c.3-.2.5-.5.7-.7-2.8 2.7-9.2 2.8-11.6 2.6 4.1-1.2 6.8-2.2 12-4.2.6-.2 1.2-.5 1.9-.8l.2-.1c.1-.1.3-.1.4-.2 2.5-1.2 4.9-2.7 7.1-4.5 5.3-4.2 6.4-8.3 7-11-.1.3-.3.9-.5 1.3-1.4 2.9-4.4 4.7-7.6 6.2 1.6-2 3-4.2 4.3-6.3 1-1.1 1.4-2.7 2.2-3.8z"
    style="fill: url(#g)"
  />
  <radialGradient
    id="h"
    cx="69.678"
    cy="-188.82"
    r="90.594"
    gradientTransform="translate(0 192)"
    gradientUnits="userSpaceOnUse"
  >
    <stop offset=".28" style="stop-color: #ffea00" />
    <stop offset=".4" style="stop-color: #fd0" />
    <stop offset=".63" style="stop-color: #ffba00" />
    <stop offset=".86" style="stop-color: #ff9100" />
    <stop offset=".93" style="stop-color: #ff6711" />
    <stop offset=".99" style="stop-color: #ff4a1d" />
  </radialGradient>
  <path
    d="M84.3 81.4c2.1-2.4 4.1-5.1 5.5-8.1 3.8-7.9 9.6-21 5-34.7-3.6-10.8-8.6-16.7-14.9-22.5C69.7 6.7 66.8 2.5 66.8 0c0 0-11.8 13.2-6.7 26.9s15.6 13.2 22.5 27.5c8.2 16.8-6.6 35.2-18.8 40.4.7-.2 27.1-6.1 28.5-21.2.1.2-.5 4.4-8 7.8z"
    style="fill: url(#h)"
  />
  <linearGradient
    id="i"
    gradientUnits="userSpaceOnUse"
    x1="-9048.268"
    y1="-7240.855"
    x2="-9017.065"
    y2="-7248.809"
    gradientTransform="matrix(1.22 .12 -.12 1.22 10186.64 9956.76)"
  >
    <stop offset="0" style="stop-color: #c42482; stop-opacity: 0.5" />
    <stop offset=".47" style="stop-color: #ff272d; stop-opacity: 0.5" />
    <stop offset=".49" style="stop-color: #ff2c2c; stop-opacity: 0.51" />
    <stop offset=".68" style="stop-color: #ff7a1a; stop-opacity: 0.72" />
    <stop offset=".83" style="stop-color: #ffb20d; stop-opacity: 0.87" />
    <stop offset=".94" style="stop-color: #ffd605; stop-opacity: 0.96" />
    <stop offset="1" style="stop-color: #ffe302" />
  </linearGradient>
  <path
    d="M50.1 32.5c0-.9-.4-1.5-7.8-2.2-3-.3-4.2-3.1-4.5-4.3-1.1 2.8-1.5 5.7-1.3 9.3.2 2.3 1.7 4.8 2.5 6.3 0 0 .2-.2.2-.3 1.4-1.5 7.3-3.7 7.9-4 .6-.4 2.9-2.1 3-4.8z"
    style="fill: url(#i)"
  />
  <linearGradient
    id="j"
    gradientUnits="userSpaceOnUse"
    x1="120.811"
    y1="-1491.696"
    x2="115.265"
    y2="-1505.908"
    gradientTransform="matrix(.99 .1 -.1 .99 -252.48 1491.59)"
  >
    <stop offset="0" style="stop-color: #891551; stop-opacity: 0.6" />
    <stop offset="1" style="stop-color: #c42482; stop-opacity: 0" />
  </linearGradient>
  <path
    d="M17.6 15.9c-.1-.2-.2.4-.2.2-.6-1.4-1-3.7-.9-5.3 0 0-1.3.6-2.3 3-.2.4-.3.7-.4.9-.1.1.1-.8.1-.7-.2.3-.6.7-.8 1.3-.2.4-.3.7-.5 1.2V16c-2.4 4.7-2.9 11.7-2.6 11.4 5.1-5.5 11-6.8 11-6.8-.7-.6-2-1.9-3.4-4.7z"
    style="fill: url(#j)"
  />
  <linearGradient
    id="k"
    gradientUnits="userSpaceOnUse"
    x1="-191.099"
    y1="136.72"
    x2="-181.535"
    y2="147.581"
    gradientTransform="matrix(.99 .1 -.1 .99 226.65 -68.82)"
  >
    <stop offset=".01" style="stop-color: #891551; stop-opacity: 0.5" />
    <stop offset=".48" style="stop-color: #ff272d; stop-opacity: 0.5" />
    <stop offset="1" style="stop-color: #ff272d; stop-opacity: 0" />
  </linearGradient>
  <path
    d="M37.1 73.2c-7.1-3-15.1-7.3-14.8-17C22.7 43.4 34.2 46 34.2 46c-.4.1-1.6.9-2 1.8-.4 1.1-1.2 3.6 1.2 6.2 3.8 4.1-7.7 9.7 10 20.3.4.2-4.2-.2-6.3-1.1z"
    style="fill: url(#k)"
  />
  <linearGradient
    id="l"
    gradientUnits="userSpaceOnUse"
    x1="-172.716"
    y1="155.456"
    x2="-172.708"
    y2="147.856"
    gradientTransform="matrix(.99 .1 -.1 .99 226.65 -68.82)"
  >
    <stop offset="0" style="stop-color: #c42482" />
    <stop offset=".08" style="stop-color: #c42482; stop-opacity: 0.81" />
    <stop offset=".21" style="stop-color: #c42482; stop-opacity: 0.57" />
    <stop offset=".33" style="stop-color: #c42482; stop-opacity: 0.36" />
    <stop offset=".45" style="stop-color: #c42482; stop-opacity: 0.2" />
    <stop offset=".56" style="stop-color: #c42482; stop-opacity: 9e-2" />
    <stop offset=".67" style="stop-color: #c42482; stop-opacity: 2e-2" />
    <stop offset=".77" style="stop-color: #c42482; stop-opacity: 0" />
  </linearGradient>
  <path
    d="M34.6 66.8c5 1.7 10.9 1.4 14.4-.5 2.3-1.3 5.4-3.4 7.2-2.9-1.6-.6-2.8-.9-4.3-1h-.8c-.5 0-1.1 0-1.6.1-.9.1-1.9.7-2.8.6 0 0 .9-.4.8-.4-.5.1-1 .1-1.6.2-.4 0-.7.1-1 .1-10.5.9-19.3-5.7-19.3-5.7-.7 2.6 3.4 7.6 9 9.5z"
    style="fill: url(#l)"
  />
  <linearGradient
    id="m"
    gradientUnits="userSpaceOnUse"
    x1="64.615"
    y1="-188.329"
    x2="95.678"
    y2="-118.869"
    gradientTransform="translate(0 192)"
  >
    <stop offset="0" style="stop-color: #fff14f" />
    <stop offset=".27" style="stop-color: #ffee4c" />
    <stop offset=".45" style="stop-color: #ffe643" />
    <stop offset=".61" style="stop-color: #ffd834" />
    <stop offset=".76" style="stop-color: #ffc41e" />
    <stop offset=".89" style="stop-color: #ffab02" />
    <stop offset=".9" style="stop-color: #ffa900" />
    <stop offset=".95" style="stop-color: #ffa000" />
    <stop offset="1" style="stop-color: #ff9100" />
  </linearGradient>
  <path
    d="M84.3 81.5c10.6-10.4 15.9-23 13.7-37.2 0 0 .9 7.3-2.5 14.7 1.6-7.3 1.8-16.3-2.5-25.6-5.8-12.5-15.4-19-19.1-21.8C68.3 7.5 66 3.2 66 2.4c-1.7 3.4-6.7 15.1-.5 25.1 5.8 9.4 14.8 12.2 21.2 20.8 11.5 15.9-2.4 33.2-2.4 33.2z"
    style="fill: url(#m)"
  />
  <linearGradient
    id="n"
    gradientUnits="userSpaceOnUse"
    x1="70.749"
    y1="-148.381"
    x2="56.036"
    y2="-108.874"
    gradientTransform="translate(0 192)"
  >
    <stop offset="0" style="stop-color: #ff8e00" />
    <stop offset=".04" style="stop-color: #ff8e00; stop-opacity: 0.86" />
    <stop offset=".08" style="stop-color: #ff8e00; stop-opacity: 0.73" />
    <stop offset=".13" style="stop-color: #ff8e00; stop-opacity: 0.63" />
    <stop offset=".18" style="stop-color: #ff8e00; stop-opacity: 0.56" />
    <stop offset=".23" style="stop-color: #ff8e00; stop-opacity: 0.51" />
    <stop offset=".28" style="stop-color: #ff8e00; stop-opacity: 0.5" />
    <stop offset=".39" style="stop-color: #ff8e00; stop-opacity: 0.48" />
    <stop offset=".52" style="stop-color: #ff8e00; stop-opacity: 0.42" />
    <stop offset=".68" style="stop-color: #ff8e00; stop-opacity: 0.31" />
    <stop offset=".84" style="stop-color: #ff8e00; stop-opacity: 0.17" />
    <stop offset="1" style="stop-color: #ff8e00; stop-opacity: 0" />
  </linearGradient>
  <path
    d="M82.7 54.4c-3.7-7.6-8.3-11-12.7-14.6.5.7.6 1 .9 1.4 3.8 4.1 9.5 14.1 5.4 26.6-7.7 23.6-38.7 12.5-42 9.4 1.3 13.7 24.2 20.2 39.1 11.3 8.5-7.9 15.4-21.5 9.3-34.1z"
    style="fill: url(#n)"
  />
</svg>
