<svg
  xmlns="http://www.w3.org/2000/svg"
  xml:space="preserve"
  style="enable-background: new 0 0 283.5 283.5"
  viewBox="0 0 283.5 283.5"
>
  <path
    d="M141.7 0C63.6 0 0 63.6 0 141.7 0 218.4 61.2 281 137.4 283.3c1.4.1 2.8.1 4.3.1 1.4 0 2.9 0 4.3-.1 76.2-2.3 137.4-64.9 137.4-141.6C283.5 63.6 219.9 0 141.7 0zm-8.8 19.4v51.5H94.8c2.3-7 5-13.4 7.9-19.2 8.8-17.6 19.5-28.4 30.2-32.3zm17.7 0c10.7 3.9 21.4 14.7 30.2 32.2 2.9 5.8 5.6 12.3 7.9 19.2h-38.1V19.4zm-52.7 6.5c-4 5.4-7.8 11.3-11.1 17.9-4.1 8.2-7.6 17.4-10.5 27.1H40c14.2-20.4 34.3-36.1 57.9-45zm87.7 0c23.6 8.9 43.7 24.7 57.9 45h-36.3c-2.9-9.8-6.4-19-10.5-27.1-3.3-6.6-7.1-12.5-11.1-17.9zm-156 62.7h42.1c-2.9 13.8-4.5 28.7-5 44.3H18.1c1.1-15.8 5.1-30.7 11.5-44.3zm60.5 0h42.8v44.3H84.3c.5-15.8 2.7-30.7 5.8-44.3zm60.5 0h42.8c3.1 13.6 5.3 28.5 5.8 44.3h-48.6V88.6zm61.2 0h42.1c6.5 13.6 10.4 28.5 11.5 44.3h-48.6c-.5-15.6-2.2-30.5-5-44.3zm-193.7 62h48.6c.5 15.6 2.1 30.5 5 44.3H29.6c-6.4-13.6-10.4-28.5-11.5-44.3zm66.2 0h48.6v44.3H90c-3.1-13.6-5.2-28.6-5.7-44.3zm66.3 0h48.6c-.5 15.7-2.6 30.7-5.7 44.3h-42.9v-44.3zm66.2 0h48.6c-1.1 15.8-5 30.7-11.5 44.3h-42.1c2.9-13.8 4.5-28.7 5-44.3zm-176.9 62h36.4c2.9 9.7 6.4 18.8 10.5 27 3.3 6.6 7.1 12.8 11.2 18.3-23.7-9-43.9-24.8-58.1-45.3zm54.9 0h38.1v51.6c-10.7-3.9-21.4-15-30.2-32.5-2.9-5.8-5.6-12.1-7.9-19.1zm55.8 0h38.1c-2.3 7-5 13.3-7.9 19.1-8.8 17.6-19.5 28.6-30.2 32.5v-51.6zm56.6 0h36.4c-14.2 20.4-34.4 36.3-58.1 45.3 4.1-5.5 7.9-11.6 11.2-18.3 4.1-8.2 7.6-17.3 10.5-27z"
  />
</svg>
