<svg xmlns="http://www.w3.org/2000/svg" xml:space="preserve" style="enable-background:new 0 0 100 100"
     viewBox="0 0 100 100">
    <path d="M50 0C36.6 0 24.1 5.2 14.6 14.6 5.2 24.1 0 36.6 0 50s5.2 25.9 14.6 35.4C24 94.8 36.6 100 50 100s25.9-5.2 35.4-14.6C94.8 76 100 63.4 100 50s-5.2-25.9-14.6-35.4C75.9 5.2 63.4 0 50 0zm38.7 53c1.4-1 .5-2.5 1.7-3.5.7-.5 1.4-.7 2-1.4.2-.3.4-.5.5-.7.1.9.1 1.7.1 2.6 0 20.1-13.9 37-32.5 41.7.6-.3 1.1-.5 1.6-.9 1-.7 1.7-1.8 2.7-2.3 1.1-.6 2.1-.9 3.1-1.8.8-.7 1.8-1.7 2.5-2.6.8-1 .8-2.2 1.6-3.2.8-.9 1.9-1.6 3-2.2 1.1-.6 2.2-.9 3.2-1.7 1.1-1 .9-2.2 1-3.7.1-1.2-.3-2.6.1-3.7.3-1 1.5-1.9 2.2-2.8 1.8-2.3.8-5.4-2.4-5.1-1.2.1-2.3.5-3.5.4-1.4-.1-2.7-.4-4-.6-1.1-.2-2.3-.1-3.2-.7-1.1-.7-1.7-2.3-2.8-3-2.3-1.3-5.5-.6-7.9-1.7-1.5-.7-2-1.6-3.8-1.8-1.4-.1-2.8-.1-4.2.1-1.5.2-2.5.6-4.1.5-1.2-.1-3-.6-3.8.4-.6.7-1 2.5-1.2 3.5-.3 1.3-.2 2.8-.5 4.1-.6 2.5-2.5 5.2-1.2 7.9 1.1 2.3 3.7 5.2 5.7 6.7 1.9 1.4 5.8 1.2 6.8 3.3 1 2 1.7 5 1.4 7.3-.1 1.3.1 2.5.1 3.8 0 .3.1.7.2 1.1-.9.1-1.8.1-2.8.1-22.9 0-41.6-18-42.9-40.6 1.7 1.7 3.4 4.3 3.4 6.8 0 2.9 4.3 4.2 6.4 5.8 1.6 1.2 2.2 1 3.9 1 1.8 0 2.1 1.5 3.5 1.9 1.4.5 2.5.5 3.4 1.8.4.5 2.5.6 2.5-1 0-1.3.6-2.4-.9-2.9-.9-.3-3.2.4-3.6 0-.7-.7.3-2.8.5-3.4.4-2-1.4-1.8-2.6-.8-1 .9-1.9 2.2-3.5 1.3-1.9-1-1.3-5.6-.6-7.1.7-1.5 1.8-1.8 3.5-1.8.8 0 1.4.1 2.1-.2.5-.2 1-.7 1.5-.7.9-.1 2.5.1 3.2.5 1.1.7 2.3.3 2.2-.9-.2-1.5.7-2.5 1.8-3.4.6-.5 1.6-.8 2.1-1.4.6-.6.6-1.5.9-2.3.4-1.2.3-2.7 1.1-3.7.5-.6 1.5-1 1.9-1.6.4-.7-.1-1.2.5-1.8 1-.9 2.9-.5 4.1-1 2.2-.9 1.5-2.3-.5-2.9-1.1-.3-2.6 0-1.1-1.5 1.1-1.1 2.6-.6 3.7-1.5 1-.9 1.1-2.6-.2-3.3-.4-.2-1-.2-1.4-.4-.7-.4-1.2-1.3-1.9-1.9-1.3-1.1-2.2-.7-3.8-.8-1.4-.1-2.4-1.5-3.9-1.8-1.6-.2-1.2 1.3-1.3 2.6-.1 1.7-.6 2.9-2.6 3-1.6.1-3.2-.4-3.5-2.2-.3-1.4.3-2.5 1.4-3.2 1.3-.9 1.9-1.1 2.4-2.7.3-.8.5-1.2 1-1.8.3-.4 1-1.3.8-1.8-.4-.8-2.5-.8-3.3-.9-.5 0-1.2-.3-1.7-.1-.8.2-1.1 1.1-1.8 1.5-1.6.8-2.3-.2-3.1-1.3 0-.1-.1-.1-.1-.2 5.7-4.5 12.6-7.5 20.2-8.6 1.4 1.3 2.8 1.7 4.4 2.4 1.7.6 3.4 1.1 4.8 2.4 1.3 1.1 2 2.3 3.6 1.1 1.1-.8 1.9-2 3.5-1.5 1.9.5 1 2.4 1.5 3.9.8 2.1 5.3 4.9 2.7 7.2-1.1 1-3 .9-2.3 3 .4 1.2 1 1 1.9 1.3.2.1.6-.1.8 0 .3.1.5.7.8.9 2.6 1.4 6.4-.6 5.9-3.7-.2-1.3-.9-2.3-1.2-3.6-.1-.6-.1-1.4-.3-2.1-.2-.6-1-1.5-.8-2.2.3-1 2.6-.9 3.6-1 1-.1 1.8 0 2.7.2 2.7 2 5.2 4.4 7.3 7-.2.2-.3.5-.5.7-.3.6-.2.9-1 1.2-.3.1-1.2.1-1.5 0-1.2-.3-2.1-2.5-3.1-.7-.5 1-.3 2.6-.4 3.7-.1 1.5-1.2 2.3-1.2 3.9 0 2 1.2 2.2 1.9 3.7.6 1.4-.3 2.5-.3 4 0 1.2.5 2.4 1.1 3.5.4.7 1.1 1.2 1.3 2 .2.6-.1 1.3 0 1.9.2 1.5 1.3 2.1 2.5 2.9 1.2.8 2 1.8 3.1 2.8 1.3.5 2.6 1.2 3.9.3z"/>
</svg>

