<svg xmlns="http://www.w3.org/2000/svg" viewBox="0 0 100 100">
  <path
    d="M100 50c0-27.6-22.4-50-50-50S0 22.4 0 50s22.4 50 50 50 50-22.4 50-50zM8.3 50C8.3 27 27 8.3 50 8.3S91.7 27 91.7 50 73 91.7 50 91.7 8.3 73 8.3 50z"
  />
  <path
    d="M33.2 51.5l19.6-20.1c.6-.6 1.6-.6 2.3 0l11.2 10.9c.6.6.6 1.6 0 2.3L46.7 64.7c-.6.6-1.6.6-2.3 0L33.3 53.8c-.7-.6-.7-1.6-.1-2.3zM56.9 27.3l3-3.1c.5-.5 1.4-.6 1.9 0l11.5 11.2c.5.5.6 1.4 0 1.9l-3 3.1c-.5.5-1.4.6-1.9 0L56.9 29.2c-.5-.5-.5-1.4 0-1.9zM26.3 70.7L30 56.1c.2-.8 1.2-1.1 1.8-.5l10.8 10.5c.6.6.3 1.6-.5 1.8L27.6 72c-.8.3-1.5-.4-1.3-1.3z"
  />
</svg>
