<svg
  xmlns="http://www.w3.org/2000/svg"
  xml:space="preserve"
  id="Layer_1"
  x="0"
  y="0"
  style="enable-background: new 0 0 283.5 283.5"
  version="1.1"
  viewBox="0 0 283.5 283.5"
>
  <style>
    .st0 {
      fill-rule: evenodd;
      clip-rule: evenodd;
    }
  </style>
  <path
    d="M0 60.7c0-28 22.7-50.6 50.6-50.6h182.2c28 0 50.6 22.7 50.6 50.6v40.5c0 5.6-4.5 10.1-10.1 10.1s-10.1-4.5-10.1-10.1V91.1h-243v111.4c0 16.8 13.6 30.4 30.4 30.4h40.5c5.6 0 10.1 4.5 10.1 10.1s-4.5 10.1-10.1 10.1H50.6c-28 0-50.6-22.7-50.6-50.6V60.7zm263.2 0v10.1h-243V60.7c0-16.8 13.6-30.4 30.4-30.4h182.2c16.8.1 30.4 13.7 30.4 30.4zm-212.6 0c5.6 0 10.1-4.5 10.1-10.1s-4.5-10.1-10.1-10.1S40.5 45 40.5 50.6 45 60.7 50.6 60.7zm40.5-10.1c0 5.6-4.5 10.1-10.1 10.1s-10.1-4.5-10.1-10.1S75.4 40.5 81 40.5 91.1 45 91.1 50.6zm20.3 10.1c5.6 0 10.1-4.5 10.1-10.1s-4.5-10.1-10.1-10.1-10.1 4.5-10.1 10.1 4.5 10.1 10.1 10.1z"
    class="st0"
  />
  <path
    d="M141.7 232.8c-16.8 0-30.4-13.6-30.4-30.4s13.6-30.4 30.4-30.4v-10c0-16.8 13.6-30.4 30.4-30.4h10.1c11.2 0 20.2 9.1 20.2 20.2 0 5.6 4.5 10.1 10.1 10.1s10.1-4.5 10.1-10.1c0-11.2 9.1-20.2 20.2-20.2h10.1c16.8 0 30.4 13.6 30.4 30.4v81c0 16.8-13.6 30.4-30.4 30.4h-81c-16.8 0-30.4-13.6-30.4-30.4v-10.2zm-10.1-30.3c0 5.6 4.5 10.1 10.1 10.1 11.2 0 20.2 9.1 20.2 20.2V243c0 5.6 4.5 10.1 10.1 10.1h81c5.6 0 10.1-4.5 10.1-10.1v-81c0-5.6-4.5-10.1-10.1-10.1h-10c0 16.8-13.6 30.4-30.4 30.4s-30.4-13.6-30.4-30.4h-10.1c-5.6 0-10.1 4.5-10.1 10.1v10.1c0 11.2-9.1 20.2-20.2 20.2-5.7.1-10.2 4.6-10.2 10.2z"
    class="st0"
  />
</svg>
