<svg xmlns="http://www.w3.org/2000/svg" viewBox="0 0 100 100">
  <path
    d="M50 30.6c-17.6 0-31.4 16.9-31.9 17.6L16.7 50l1.4 1.7c.6.7 14.4 17.6 31.9 17.6s31.4-16.9 31.9-17.6l1.4-1.7-1.4-1.7c-.5-.7-14.3-17.7-31.9-17.7zm0 33.3c-11.9 0-22.3-9.8-26.1-13.9 3.8-4.1 14.2-13.9 26.1-13.9S72.3 45.9 76.1 50C72.3 54.1 61.9 63.9 50 63.9z"
  />
  <path
    d="M50 37.3c-7 .1-12.6 5.9-12.6 12.9s5.9 12.6 12.9 12.6c7-.1 12.6-5.8 12.6-12.7-.1-7.2-5.8-12.9-12.9-12.8zm0 19.9c-4-.1-7.1-3.4-7.1-7.4.1-4 3.4-7.1 7.4-7.1 3.9.1 7.1 3.3 7.1 7.3S54 57.3 50 57.2z"
  />
  <path
    d="M50 5c24.8 0 45 20.2 45 45S74.8 95 50 95 5 74.8 5 50 25.2 5 50 5m0-5C22.4 0 0 22.4 0 50s22.4 50 50 50 50-22.4 50-50S77.6 0 50 0z"
  />
</svg>
