<svg
  xmlns="http://www.w3.org/2000/svg"
  viewBox="0 0 100 100"
  style="enable-background: new 0 0 100 100"
  xml:space="preserve"
>
  <path
    d="M23.1 83.3h62.3c2.4 0 4.3-2 4.3-4.3V4.3c0-2.4-2-4.3-4.3-4.3H14.6c-2.4 0-4.3 2-4.3 4.3v82.9c0 7.1 5.7 12.7 12.7 12.7h62.3c2.4 0 4.3-2 4.3-4.3 0-2.4-2-4.3-4.3-4.3H23.1c-2.2 0-4-1.8-4-4s1.7-4 4-4zM50.7 70c-3.4 0-6.1-2.7-6.1-6.1 0-3.4 2.7-6.1 6.1-6.1 3.4 0 6.1 2.7 6.1 6.1.1 3.4-2.6 6.1-6.1 6.1zm-.5-56.6c7.1 0 13.2 3.5 16 9.3 2.7 5.5 2.3 11.9-1.3 16.7-2.3 3.1-4.6 4.7-6.3 5.9-1.9 1.3-2.5 1.8-2.7 4.7-.1 1.6-1.5 2.7-3.1 2.7h-4.1c-.8 0-1.7-.3-2.2-.9-.5-.6-.8-1.5-.8-2.3.6-7.5 3.6-10.1 7.1-12.5 1.4-.9 2.6-1.9 3.9-3.6 1.3-1.7 1.4-4 .4-6-.7-1.4-2.5-3.7-6.9-3.7-5.7 0-7.5 3.5-8 6.4-.2 1.5-1.5 2.5-2.9 2.5h-4.2c-.8 0-1.8-.4-2.3-1.1-.5-.6-.8-1.6-.7-2.4 1-7.3 6.3-15.7 18.1-15.7z"
  />
</svg>
