<?xml version="1.0" encoding="utf-8"?>
<!-- Generator: Adobe Illustrator 24.0.1, SVG Export Plug-In . SVG Version: 6.00 Build 0)  -->
<svg version="1.1" id="Layer_1" xmlns="http://www.w3.org/2000/svg" xmlns:xlink="http://www.w3.org/1999/xlink" x="0px" y="0px"
	 viewBox="0 0 100 100" style="enable-background:new 0 0 100 100;" xml:space="preserve">
<path d="M11.7,11.8h76.6c2.1,0,4,0.5,5.8,1.5l0.1,0.1c1.7,1,3.1,2.4,4.1,4.1c1.1,1.8,1.6,3.7,1.7,5.7c0.1,2-0.4,3.9-1.4,5.8
	l-9.4,17.7c-0.6,1.1-0.8,2.2-0.8,3.3s0.3,2.2,0.8,3.3L98.6,71c1,1.8,1.4,3.8,1.4,5.8c-0.1,2-0.6,3.9-1.7,5.7
	c-1.1,1.8-2.5,3.2-4.2,4.2c-1.7,1-3.7,1.5-5.8,1.5H11.7c-3.2,0-6.1-1.3-8.3-3.4c-2.1-2.1-3.4-5-3.4-8.3v-53c0-3.2,1.3-6.1,3.4-8.3
	C5.5,13.1,8.5,11.8,11.7,11.8L11.7,11.8z"/>
</svg>
