<svg
  xmlns="http://www.w3.org/2000/svg"
  xml:space="preserve"
  style="enable-background: new 0 0 100 100"
  viewBox="0 0 100 100"
>
  <path
    d="M42.8 19.4c.7 0 1.3.4 1.6.9l3.2 5.9c2.3 4.2 6.7 6.9 11.6 6.9h28.3c1 0 1.8.8 1.8 1.8v43.8c0 1-.8 1.8-1.8 1.8h-75c-1 0-1.8-.8-1.8-1.8V21.2c0-1 .8-1.8 1.8-1.8h30.3m0-5.6H12.5c-4.1 0-7.5 3.4-7.5 7.5v57.5c0 4.1 3.4 7.5 7.5 7.5h75c4.1 0 7.5-3.4 7.5-7.5V35c0-4.1-3.4-7.5-7.5-7.5H59.2c-2.7 0-5.3-1.5-6.6-3.9l-3.2-5.9c-1.3-2.5-3.8-3.9-6.6-3.9z"
  />
  <path
    d="M87.5 22.5H59.2c-.9 0-1.8-.5-2.2-1.3l-3.2-5.9c-2.2-4-6.4-6.5-11-6.5H12.5C5.6 8.8 0 14.3 0 21.2v57.5c0 6.9 5.6 12.5 12.5 12.5h75c6.9 0 12.5-5.6 12.5-12.5V35c0-6.9-5.6-12.5-12.5-12.5zM95 78.8c0 4.1-3.4 7.5-7.5 7.5h-75c-4.1 0-7.5-3.4-7.5-7.5V21.2c0-4.1 3.4-7.5 7.5-7.5h30.3c2.7 0 5.3 1.5 6.6 3.9l3.2 5.9c1.3 2.4 3.8 3.9 6.6 3.9h28.3c4.1 0 7.5 3.4 7.5 7.5v43.9z"
  />
  <path
    d="M42.8 8.8H12.5C5.6 8.8 0 14.3 0 21.2v57.5c0 6.9 5.6 12.5 12.5 12.5h75c6.9 0 12.5-5.6 12.5-12.5V35c0-6.9-5.6-12.5-12.5-12.5H59.2c-.9 0-1.8-.5-2.2-1.3l-3.2-5.9c-2.2-4.1-6.4-6.5-11-6.5zM12.5 86.2c-4.1 0-7.5-3.4-7.5-7.5V21.2c0-4.1 3.4-7.5 7.5-7.5h30.3c2.7 0 5.3 1.5 6.6 3.9l3.2 5.9c1.3 2.4 3.8 3.9 6.6 3.9h28.3c4.1 0 7.5 3.4 7.5 7.5v43.8c0 4.1-3.4 7.5-7.5 7.5h-75z"
  />
</svg>
