<svg xmlns="http://www.w3.org/2000/svg" xml:space="preserve" version="1.1" viewBox="0 0 100 100">
  <path
    data-id="outer"
    d="M87.5 22.5H59.2c-.9 0-1.8-.5-2.2-1.3l-3.2-5.9c-.2-.4-.5-.8-.7-1.1-.2-.3-.4-.5-.6-.8-.1-.1-.1-.2-.2-.2-1.4-1.6-3.1-2.8-5.1-3.5-.2-.1-.3-.1-.5-.2-.3-.1-.5-.2-.8-.2-.5-.2-.9-.3-1.3-.4h-.3c-.5-.1-1.1-.1-1.6-.1H12.5C5.6 8.8 0 14.3 0 21.2v57.5c0 6.9 5.6 12.5 12.5 12.5h75c6.9 0 12.5-5.6 12.5-12.5V35c0-6.9-5.6-12.5-12.5-12.5zm1.8 56.2c0 1-.8 1.8-1.8 1.8h-75c-1 0-1.8-.8-1.8-1.8V21.2c0-1 .8-1.8 1.8-1.8h30.3c.7 0 1.3.4 1.6.9l3.2 5.9c2.3 4.2 6.7 6.9 11.6 6.9h28.3c1 0 1.8.8 1.8 1.8v43.8z"
  />
  <path
    data-id="inner"
    d="M87.5 33.1H59.2c-4.9 0-9.3-2.7-11.6-6.9l-3.2-5.9c-.3-.5-.9-.9-1.6-.9H12.5c-1 0-1.8.8-1.8 1.8v57.5c0 1 .8 1.8 1.8 1.8h75c1 0 1.8-.8 1.8-1.8V34.9c0-1-.8-1.8-1.8-1.8z"
  />
</svg>
