<svg
  xmlns="http://www.w3.org/2000/svg"
  viewBox="0 0 100 100"
  style="enable-background: new 0 0 100 100"
  xml:space="preserve"
>
  <path
    d="M10.9 88.9c0 6.1 5 11 11.1 11.1h67.1V29H22c-4.2 0-8.3-1.8-11.1-5.1v65zm24.2-8.6 11.3-33.4c.3-1 1.2-3.9 2.3-3.9h2.5c1 0 1.9 3 2.3 3.9l11.4 33.4c.4 1.3-.2 2.6-1.5 3-.3.1-.5.1-.8.1h-.2c-1 0-1.9-.6-2.3-1.6l-3-8.7c-.3-1-1.2-1.6-2.3-1.6h-10c-1.1 0-2 .7-2.3 1.7l-2.9 8.7c-.4 1.3-1.8 1.9-3.1 1.5-.9-.3-1.6-1.2-1.6-2.2.1-.3.1-.5.2-.9z"
  />
  <path
    d="M22 25.4h67.1V0H22c-6.1 0-11 5-11.1 11.1v3.3c0 6.1 5 11 11.1 11zm-.9-14.5h57.8c1 0 1.8.8 1.8 1.8s-.8 1.8-1.8 1.8H21.1c-1 0-1.8-.8-1.8-1.8s.8-1.8 1.8-1.8zM47.5 67.7h4.8c1.3 0 2.4-1.1 2.4-2.4 0-.3 0-.5-.1-.8l-2.7-7.8c-.9-2.5-1.4-4.8-2-6.9h-.1c-.6 2.3-1.2 4.6-1.9 6.9l-2.7 7.8c-.4 1.3.3 2.6 1.5 3.1.3.1.5.1.8.1z"
  />
</svg>
