<svg
  xmlns="http://www.w3.org/2000/svg"
  viewBox="0 0 100 100"
  style="enable-background: new 0 0 100 100"
  xml:space="preserve"
>
  <path style="fill: none" d="M0 0h100v100H0z" />
  <path
    d="M50 0C22.4 0 0 22.4 0 50s22.4 50 50 50 50-22.4 50-50S77.6 0 50 0zm9.2 52.6c0-5.1-4.1-9.2-9.2-9.2-2.4 0-4.8 1-6.5 2.7-1.7 1.7-2.7 4.1-2.7 6.5v19.5c0 2.4 1 4.8 2.7 6.5 1.7 1.7 4.1 2.7 6.5 2.7 5.1 0 9.2-4.1 9.2-9.2V52.6zm-9.2-34c-5.1 0-9.2 4.1-9.2 9.2S44.9 37 50 37s9.2-4.1 9.2-9.2-4.1-9.2-9.2-9.2z"
    style="fill-rule: evenodd; clip-rule: evenodd"
  />
</svg>
