<svg
  xmlns="http://www.w3.org/2000/svg"
  viewBox="0 0 100 100"
  style="enable-background: new 0 0 100 100"
  xml:space="preserve"
>
  <path
    d="M88.4 85.8h-2.1c-.1-.9-.1-1.7-.2-2.5-.3-5.2-.6-10.3-.9-15.5-.3-5.8-.7-11.6-1-17.4-.1-1.2.6-2 1.8-2.3 1.3-.2 1.9-.9 1.8-1.9-.1-.9-.9-1.6-2.1-1.6H72c-1.3 0-2.1.7-2.1 1.6-.1 1 .6 1.7 1.8 1.9 1.1.2 1.7.9 1.7 2 0 .6 0 1.1-.1 1.7-.5 9.1-1 18.2-1.6 27.2-.1 2.2-.3 4.4-.4 6.7H58.4c-.9 0-1.1-.3-1.1-1.1-.1-2.9-.3-5.9-.5-8.8-.5-8.4-1-16.8-1.5-25.3-.1-1.5.5-2.2 1.9-2.5 1.1-.2 1.7-.9 1.6-1.9-.1-.9-.8-1.6-1.8-1.6H42.8c-1 0-1.8.7-1.8 1.6-.1 1 .5 1.7 1.6 1.9 1.4.3 2 .9 1.9 2.4-.1 1.5-.2 2.9-.2 4.4-.6 10-1.2 19.9-1.7 29.9 0 .7-.2 1-1 1H29.5c-.8 0-1-.2-1-1-.2-4-.4-7.9-.6-11.9-.4-7.4-.9-14.9-1.3-22.3-.1-1.6.4-2.2 2-2.5 1-.2 1.6-.9 1.6-1.9-.1-.9-.8-1.5-1.7-1.6H14.1c-1 .1-1.7.7-1.8 1.6 0 1 .5 1.6 1.6 1.8 1.5.3 2.1 1 2 2.6-.2 4-.5 7.9-.7 11.9-.5 6.4-.8 12.6-1.2 18.8-.1 1.5-.2 3-.3 4.6h-2.6c-2.2.1-3.6 2-3 4 .4 1.4 1.7 2.2 3.5 2.2h76.7c2.1 0 3.6-1.3 3.6-3.1.1-1.8-1.4-3.1-3.5-3.1zM98.4 32.5c-.1-.1-.3-.2-.4-.2-15.2-7.9-30.3-15.8-45.5-23.7-1.7-.9-3.3-.9-5 0-7.5 3.9-15.1 7.8-22.6 11.7-7.8 4-15.5 8.1-23.3 12.1-1.6.8-2 1.9-1.1 3.5.5.9.9 1.8 1.4 2.8.8 1.7 2.1 2.5 3.9 2.4h88.5c1.8 0 3.2-.8 3.9-2.4.4-.9.9-1.8 1.3-2.7.9-1.6.6-2.7-1.1-3.5z"
  />
</svg>
