<svg xmlns="http://www.w3.org/2000/svg" viewBox="0 0 100 100">
  <path
    d="M50.1 37.5H50h.1zM79.3 25H66.7s6.8 4.4 8.2 12.5H79.3c4.6 0 8.2 3.6 8.2 8.2V54c0 4.6-3.6 8.5-8.2 8.5H50.1c-4.6 0-8.5-3.9-8.5-8.5v-8.2H29.2V54c0 3 .7 5.9 1.8 8.5C34.2 69.8 41.6 75 50.1 75h29.2c11.5 0 20.7-9.5 20.7-21v-8.3C100 34.2 90.8 25 79.3 25z"
  />
  <path
    d="M69.2 37.5C66 30.1 58.7 25 50.1 25H21C9.5 25 0 34.2 0 45.7V54c0 11.5 9.5 21 21 21h12.4s-6.7-4.4-8.4-12.5h-4c-4.6 0-8.5-3.9-8.5-8.5v-8.3c0-4.6 3.9-8.2 8.5-8.2h29.1c4.6 0 8.2 3.6 8.2 8.2v8.4h12.5v-8.4c0-2.9-.6-5.7-1.6-8.2z"
  />
</svg>
