<svg xmlns="http://www.w3.org/2000/svg" viewBox="0 0 100 100">
  <path
    d="M98.6 53.1L83 68.4c-4.3 4.3-10.8-2.2-6.5-6.5l5.3-5.2c1.2-1.2.8-2.2-.9-2.2h-21c-2.5 0-4.6-2-4.6-4.6 0-2.5 2-4.6 4.6-4.6h21c1.7 0 2.1-1 .9-2.2L76.5 38c-4.3-4.3 2.2-10.8 6.5-6.5l15.6 15.1c1.9 1.9 1.9 4.8 0 6.5zM71.7 20.3c2.1 2.1 2.1 5.5 0 7.6-2.1 2.1-5.5 2.1-7.6 0-12.2-12.2-32-12.2-44.3 0s-12.2 32 0 44.3 32 12.2 44.3 0c2.1-2.1 5.5-2.1 7.6 0 2.1 2.1 2.1 5.5 0 7.6-16.4 16.4-43 16.4-59.4 0s-16.4-43 0-59.4 43-16.5 59.4-.1z"
  />
</svg>
