<svg xmlns="http://www.w3.org/2000/svg" viewBox="0 0 45 35">
  <path
    d="M17.968 21.622l-4.134-4.044 4.134-4.045 4.134 4.045-4.134 4.044zm8.746.467l-4.134-4.045-4.135 4.045 4.135 4.044 4.134-4.044zm-3.816 4.355l4.134 4.045 4.134-4.045-4.134-4.044-4.134 4.044zm13.038-13.377l-4.134-4.045-4.134 4.045 4.134 4.044 4.134-4.044zm.318-.467l4.135-4.044-4.135-4.045-4.134 4.045 4.134 4.044zm4.612-3.578l-4.135 4.045 4.135 4.044L45 13.067l-4.134-4.045zm-9.54-.466L27.19 4.51l-4.134 4.045L27.19 12.6l4.134-4.044zM22.58 17.11l4.134-4.044-4.134-4.045-4.135 4.045 4.135 4.044zM17.968 12.6l4.134-4.044-4.134-4.045-4.134 4.045 4.134 4.044zm-8.745.467l4.134 4.044 4.134-4.044-4.134-4.045-4.134 4.045zm-.477.31L4.61 17.423l4.135 4.045 4.134-4.045-4.134-4.044zm4.61 4.512l-4.133 4.044 4.134 4.045 4.134-4.045-4.134-4.044zM4.135 9.022L0 13.067l4.134 4.044 4.135-4.044-4.135-4.045zm8.905-.466L8.746 4.51 4.61 8.556 8.746 12.6l4.293-4.044zm22.897-4.512L31.802 0l-4.134 4.044 4.134 4.045 4.134-4.045zm-18.445 0L13.357 0 9.223 4.044l4.134 4.045 4.134-4.045zm.795 26.912L22.42 35l4.135-4.044-4.135-4.045-4.134 4.045zM32.12 17.578l4.134 4.044 4.135-4.044-4.135-4.045-4.134 4.045zm-4.611 4.51l4.134 4.045 4.134-4.044-4.134-4.045-4.134 4.045zm3.816-4.51l-4.134-4.045-4.134 4.045 4.134 4.044 4.134-4.044zM17.968 22.4l-4.134 4.044 4.134 4.045 4.134-4.045-4.134-4.044z"
  />
</svg>
