<svg xmlns="http://www.w3.org/2000/svg" viewBox="0 0 100 100" xml:space="preserve">
  <path
    data-id="background"
    d="m50 74 30-30.1 15.2 27.4c3-6.5 4.8-13.7 4.8-21.3 0-27.6-22.4-50-50-50S0 22.4 0 50s22.4 50 50 50h1L19.9 43.9 50 74z"
  />
  <path data-id="shadow" d="M95.2 71.3 80 43.9 50 74 19.9 43.9 51 100c19.6-.4 36.4-12 44.2-28.7z" />
  <path data-id="logo" data-id-logo="yellow" d="m19.9 43.9 5.3-5.3 5.3 5.3-5.3 5.3-5.3-5.3z" />
  <path data-id="logo" data-id-logo="red" d="m26.1 50 5.3-5.3 5.3 5.3-5.3 5.3-5.3-5.3z" />
  <path data-id="logo" data-id-logo="blue" d="m32.3 56.3 5.3-5.3 5.3 5.3-5.3 5.3-5.3-5.3z" />
  <path data-id="logo" data-id-logo="red" d="m38.5 62.4 5.3-5.3 5.3 5.3-5.3 5.3-5.3-5.3z" />
  <path data-id="logo" data-id-logo="green" d="m44.7 68.7 5.3-5.3 5.3 5.3L50 74l-5.3-5.3z" />
  <path data-id="logo" data-id-logo="red" d="m26.1 37.6 5.3-5.3 5.3 5.3-5.3 5.3-5.3-5.3z" />
  <path data-id="logo" data-id-logo="yellow" d="m32.3 43.9 5.3-5.3 5.3 5.3-5.3 5.3-5.3-5.3z" />
  <path data-id="logo" data-id-logo="green" d="m38.5 50 5.3-5.3 5.3 5.3-5.3 5.3-5.3-5.3z" />
  <path data-id="logo" data-id-logo="yellow" d="M44.7 56.3 50 51l5.3 5.3-5.3 5.3-5.3-5.3z" />
  <path data-id="logo" data-id-logo="red" d="m50.9 62.4 5.3-5.3 5.3 5.3-5.3 5.3-5.3-5.3z" />
  <path data-id="logo" data-id-logo="green" d="m32.3 31.5 5.3-5.3 5.3 5.3-5.3 5.3-5.3-5.3z" />
  <path data-id="logo" data-id-logo="blue" d="m38.5 37.6 5.3-5.3 5.3 5.3-5.3 5.3-5.3-5.3z" />
  <path data-id="logo" data-id-logo="red" d="m44.7 43.9 5.3-5.3 5.3 5.3-5.3 5.3-5.3-5.3z" />
  <path data-id="logo" data-id-logo="green" d="m50.9 50 5.3-5.3 5.3 5.3-5.3 5.3-5.3-5.3z" />
  <path data-id="logo" data-id-logo="red" d="m57.1 56.3 5.3-5.3 5.3 5.3-5.3 5.3-5.3-5.3z" />
  <path data-id="logo" data-id-logo="green" d="m50.9 37.6 5.3-5.3 5.3 5.3-5.3 5.3-5.3-5.3z" />
  <path data-id="logo" data-id-logo="blue" d="m57.1 43.9 5.3-5.3 5.3 5.3-5.3 5.3-5.3-5.3z" />
  <path data-id="logo" data-id-logo="yellow" d="m63.2 50 5.3-5.3 5.3 5.3-5.3 5.3-5.3-5.3z" />
  <path data-id="logo" data-id-logo="red" d="m57 31.5 5.3-5.3 5.3 5.3-5.3 5.3-5.3-5.3z" />
  <path data-id="logo" data-id-logo="green" d="m63.2 37.6 5.3-5.3 5.3 5.3-5.3 5.3-5.3-5.3z" />
  <path data-id="logo" data-id-logo="red" d="m69.4 43.9 5.3-5.3 5.3 5.3-5.3 5.3-5.3-5.3z" />
</svg>
