<?xml version="1.0" encoding="utf-8"?>
<!-- Generator: Adobe Illustrator 24.0.1, SVG Export Plug-In . SVG Version: 6.00 Build 0)  -->
<svg version="1.1" id="Layer_1" xmlns="http://www.w3.org/2000/svg" xmlns:xlink="http://www.w3.org/1999/xlink" x="0px" y="0px"
	 viewBox="0 0 28.3 28.3" style="enable-background:new 0 0 28.3 28.3;" xml:space="preserve">
<path d="M28,26.5l-7.2-7.2c1.7-2,2.7-4.7,2.7-7.5C23.5,5.3,18.2,0,11.7,0C5.3,0,0,5.3,0,11.7c0,6.5,5.3,11.7,11.7,11.7
	c2.9,0,5.5-1,7.5-2.7l7.2,7.2c0.4,0.4,1.1,0.4,1.5,0S28.4,26.9,28,26.5z M2.1,11.7c0-5.3,4.3-9.6,9.6-9.6c5.3,0,9.6,4.3,9.6,9.6
	c0,5.3-4.3,9.6-9.6,9.6C6.4,21.3,2.1,17,2.1,11.7z"/>
<image style="display:none;overflow:visible;" width="206" height="206" xlink:href="../../../../../../../../Desktop/icon-search-50pc.png"  transform="matrix(0.1373 0 0 0.1373 -1.554852e-02 3.441840e-03)">
</image>
</svg>
