<svg
  version="1.1"
  xmlns="http://www.w3.org/2000/svg"
  xmlns:xlink="http://www.w3.org/1999/xlink"
  x="0px"
  y="0px"
  viewBox="0 0 141.7 141.7"
  style="enable-background: new 0 0 141.7 141.7"
  xml:space="preserve"
>
  <path
    data-id="circle"
    d="M70.9,0C31.7,0,0,31.7,0,70.9s31.7,70.9,70.9,70.9c39.1,0,70.9-31.7,70.9-70.9S110,0,70.9,0z M70.9,136.6
	c-36.3,0-65.7-29.4-65.7-65.7S34.6,5.1,70.9,5.1s65.7,29.4,65.7,65.7S107.2,136.6,70.9,136.6z"
  />
  <path
    d="M86.2,107.3H34.5V55.5h51.7V107.3z M39.1,102.6h42.5V60.2H39.1V102.6z"
  />
  <path d="M107.2,86.3H55.4V34.6h51.7V86.3z M60.1,81.7h42.5V39.2H60.1V81.7z" />
  <rect
    x="79.6"
    y="45.1"
    transform="matrix(0.7071 -0.7071 0.7071 0.7071 -5.8597 80.6073)"
    width="29.6"
    height="4.6"
  />
  <rect
    x="31.8"
    y="44.4"
    transform="matrix(0.7071 -0.7071 0.7071 0.7071 -19.3748 46.6203)"
    width="29.6"
    height="4.6"
  />
  <rect
    x="80.2"
    y="92.8"
    transform="matrix(0.7071 -0.7071 0.7071 0.7071 -39.4486 95.0833)"
    width="29.6"
    height="4.6"
  />
  <rect
    x="32.5"
    y="92.2"
    transform="matrix(0.7071 -0.7071 0.7071 0.7071 -52.9637 61.0963)"
    width="29.6"
    height="4.6"
  />
</svg>
