<svg
  xmlns="http://www.w3.org/2000/svg"
  viewBox="0 0 100 100"
  style="enable-background: new 0 0 100 100"
  xml:space="preserve"
>
  <path
    d="M44 100H1.2c-.7 0-1.2-.5-1.2-1.2V32.1c0-8.6 3.3-16.7 9.4-22.8 6-6 14.1-9.4 22.8-9.4h2.4c8.6 0 16.7 3.3 22.8 9.4 6 6 9.4 14.1 9.4 22.8v19c0 .7-.5 1.2-1.2 1.2h-6v20.2c0 .7-.5 1.2-1.2 1.2H45.2v25c0 .8-.5 1.3-1.2 1.3zM2.4 97.6h40.5v-25c0-.7.5-1.2 1.2-1.2h13.1V51.2c0-.7.5-1.2 1.2-1.2h6V32.1C64.4 15.7 51 2.3 34.6 2.3h-2.4C15.7 2.4 2.4 15.7 2.4 32.1v65.5z"
  />
  <path
    d="M66.4 99.3c-.7 0-1.2-.5-1.2-1.2V71.9c0-.7.5-1.2 1.2-1.2h13.1V50.5c0-.7.5-1.2 1.2-1.2h6V31.5c0-16-13.8-29.1-30.7-29.1H32.1c-.7 0-1.2-.5-1.2-1.2S31.5 0 32.1 0H56c8.7 0 17 3.2 23.2 9 6.4 5.9 9.9 13.9 9.9 22.5v19c0 .7-.5 1.2-1.2 1.2h-6v20.2c0 .7-.5 1.2-1.2 1.2H67.6v25c0 .7-.5 1.2-1.2 1.2zM44 100c-.2 0-.5-.1-.7-.2L10 76c-.5-.4-.7-1.1-.3-1.7.4-.5 1.1-.7 1.7-.3l33.3 23.8c.5.4.7 1.1.3 1.7-.2.3-.6.5-1 .5z"
  />
  <path
    d="M36.9 35.7c-.2 0-.5-.1-.7-.2-.5-.4-.7-1.1-.3-1.7l4.8-7.1c.4-.5 1.1-.7 1.7-.3.5.4.7 1.1.3 1.7l-4.8 7.1c-.2.3-.6.5-1 .5z"
  />
  <path
    d="M41.7 42.9c-.4 0-.8-.2-1-.5l-4.8-7.1c-.4-.5-.2-1.3.3-1.7.5-.4 1.3-.2 1.7.3l4.8 7.1c.4.5.2 1.3-.3 1.7-.3.1-.5.2-.7.2z"
  />
  <path
    d="M33.3 54.8c-11.8 0-21.4-9.6-21.4-21.4S21.5 12 33.3 12s21.4 9.6 21.4 21.4-9.6 21.4-21.4 21.4zm0-40.5c-10.5 0-19 8.5-19 19s8.5 19 19 19 19-8.5 19-19c.1-10.5-8.5-19-19-19z"
  />
  <path
    d="M92.1 35.7H36.9c-.7 0-1.2-.5-1.2-1.2s.5-1.2 1.2-1.2h55.2c3.1 0 5.6-2.5 5.6-5.6V8.3c0-.7.5-1.2 1.2-1.2s1.2.5 1.2 1.2v19.4c-.1 4.5-3.7 8-8 8z"
  />
</svg>
