<svg xmlns="http://www.w3.org/2000/svg" viewBox="0 0 100 100">
  <path
    data-id="background"
    d="M50 8.3C27 8.3 8.3 27 8.3 50S27 91.7 50 91.7 91.7 73 91.7 50 73 8.3 50 8.3zm25 45.9H54.2V75h-8.4V54.2H25v-8.4h20.8V25h8.4v20.8H75v8.4z"
  />
  <path data-id="foreground" d="M54.2 25h-8.4v20.8H25v8.4h20.8V75h8.4V54.2H75v-8.4H54.2z" />
  <path
    data-id="foreground"
    d="M50 0C22.4 0 0 22.4 0 50s22.4 50 50 50 50-22.4 50-50S77.6 0 50 0zm0 91.7C27 91.7 8.3 73 8.3 50S27 8.3 50 8.3 91.7 27 91.7 50 73 91.7 50 91.7z"
  />
</svg>
