<?xml version="1.0" encoding="utf-8"?>
<!-- Generator: Adobe Illustrator 24.0.1, SVG Export Plug-In . SVG Version: 6.00 Build 0)  -->
<svg version="1.1" id="Layer_1" xmlns="http://www.w3.org/2000/svg" xmlns:xlink="http://www.w3.org/1999/xlink" x="0px" y="0px"
	 viewBox="0 0 283.5 283.5" style="enable-background:new 0 0 283.5 283.5;" xml:space="preserve">
<style type="text/css">
	.st0{fill:#FFFFFF;}
</style>
<g>
	<circle cx="141.8" cy="141.8" r="141.7"/>
</g>
<path class="st0" d="M150.4,232.2c0-2.1-0.2-3.9-0.9-5.9c-0.7-2.5-1.4-4.9-2.1-7.3c-0.9-3.7,1.9-7.1,5.6-7.1h36.1
	c6.9,0,12.7-5.6,12.7-12.7v-35.9c0-3.7,3.5-6.4,6.9-5.6c2.5,0.5,4.9,1.2,7.3,2.1c3.2,1.2,7.1,1.4,11,0.2c6.6-1.6,11.7-6.9,13.4-13.6
	c3-12.7-6.2-23.7-18.4-23.7c-2.1,0-4.2,0.2-5.9,0.9c-2.5,0.7-4.9,1.4-7.3,2.1c-3.7,0.9-7.1-1.9-7.1-5.6V84.3
	c0-6.9-5.6-12.7-12.7-12.7h-36c-3.7,0-6.4-3.5-5.6-6.9c0.5-2.5,1.2-4.9,2.1-7.3c1.2-3.2,1.4-7.1,0.2-11c-1.6-6.6-6.9-11.7-13.6-13.4
	c-12.7-3.2-23.7,6.2-23.7,18.4c0,2.1,0.2,3.9,0.9,5.9c0.7,2.5,1.4,4.9,2.1,7.3c0.9,3.7-1.9,7.1-5.6,7.1H74
	c-6.9,0-12.7,5.6-12.7,12.7v35.4c0,3.7,3.5,6.4,7.1,5.6c2.3-0.5,4.4-1.2,6.4-1.9c1.9-0.7,3.9-0.9,5.9-0.9c12,0,21.4,11.3,18.4,23.7
	c-1.6,6.6-6.6,11.7-13.4,13.6c-3.9,0.9-7.6,0.7-11-0.2c-2.1-0.7-4.4-1.4-6.4-1.9c-3.7-0.9-6.9,1.9-6.9,5.6v35.9
	c0,6.9,5.6,12.7,12.7,12.7h35.7c3.7,0,6.4,3.5,5.6,6.9c-0.5,2.5-1.2,4.9-2.1,7.3c-1.2,3.2-1.4,7.1-0.2,11
	c1.6,6.6,6.9,11.7,13.6,13.4C139.2,253.6,150.4,244.1,150.4,232.2L150.4,232.2z"/>
</svg>
