<svg xmlns="http://www.w3.org/2000/svg" viewBox="0 0 100 100">
  <path
    data-id="background"
    d="M90.4 15.8L13.3 48.3c-1.1.5-1.2 1.3-.1 1.8l14.1 7.3c2.1 1.1 4.4 3.8 5.2 6l5.8 17c.4 1.1 1.3 1.3 2 .3l5.9-7.6c1.5-1.9 4.3-2.4 6.3-1.1l19.8 12.9c1 .7 2.1.2 2.4-.9l17.2-67c.3-1.2-.4-1.7-1.5-1.2z"
  />
  <path
    data-id="foreground"
    d="M96.9 6.8L1.6 46.9c-2.1 1-2.2 2.6-.1 3.7l23.1 11.9c1 .5 2.2 1.9 2.6 3l8.5 24.9c.7 2.3 2.5 2.6 4 .7l9.2-12c.7-.9 2.1-1.1 3.1-.5l22.1 14.3c2 1.3 4.1.5 4.7-1.8l21-81.8c.6-2.3-.7-3.4-2.9-2.5zm-5 10.2L74.7 84c-.3 1.1-1.4 1.6-2.4.9L52.5 72c-2-1.3-4.8-.8-6.3 1.1l-5.9 7.6c-.7 1-1.6.8-2-.3l-5.8-17c-.8-2.2-3.1-4.9-5.2-6l-14.1-7.3c-1.1-.5-1-1.3.1-1.8l77.1-32.5c1.1-.5 1.8 0 1.5 1.2z"
  />
</svg>
