<svg
  version="1.1"
  id="Layer_1"
  xmlns="http://www.w3.org/2000/svg"
  x="0"
  y="0"
  viewBox="0 0 2000 500"
  style="enable-background: new 0 0 2000 500"
  xml:space="preserve"
>
  <style>
    .st0 {
      fill: #72a4f6;
    }
    .st4 {
      fill: #ff3e33;
    }
  </style>
  <circle class="st0" cx="136.7" cy="145.5" r="85.5" />
  <path style="fill: #4c4c4c" d="M94.2 156h13v283h-13z" />
  <path
    d="M70.2 439.5c0-38.4-31.1-69.5-69.5-69.5"
    style="
      fill: none;
      stroke: #ffd354;
      stroke-width: 8.5039;
      stroke-miterlimit: 10;
    "
  />
  <path
    d="M157.5 440h63.4c.3 0 .4-.3.2-.5l-63.4-63.4c-.2-.2-.5-.1-.5.2v63.4c0 .2.1.3.3.3z"
    style="fill: #ffd354"
  />
  <path
    class="st4"
    d="M167.2 440h63.4c.3 0 .4-.3.2-.5l-63.4-63.4c-.2-.2-.5-.1-.5.2v63.4c0 .2.1.3.3.3z"
  />
  <path
    d="M176.9 440h63.4c.3 0 .4-.3.2-.5l-63.4-63.4c-.2-.2-.5-.1-.5.2v63.4c0 .2.1.3.3.3z"
    style="fill: #ffc6cf"
  />
  <path
    class="st0"
    d="M186.6 440H250c.3 0 .4-.3.2-.5l-63.4-63.4c-.2-.2-.5-.1-.5.2v63.4c0 .2.2.3.3.3z"
  />
  <path class="st4" d="M755.2 430.4h1243.2v9.6H755.2z" />
</svg>
