<svg xmlns="http://www.w3.org/2000/svg" viewBox="0 0 100 100">
  <path
    d="M92 88.2H78.4l.5-.7 15.2-21.3c.3-.5.5-1 .5-1.5v-4.8c0-1.5-1.1-2.7-2.6-2.7H63.8c-1.5 0-2.6 1.2-2.6 2.6v6.4c0 1.5 1.2 2.7 2.6 2.7h12.6l-.4.7-15 21.3c-.3.5-.5 1-.5 1.5v4.9c0 1.5 1.2 2.7 2.7 2.7H92c1.5 0 2.7-1.2 2.7-2.7v-6.4c0-1.5-1.2-2.7-2.7-2.7zM41.9 75H31.2V3.6c0-2-1.6-3.6-3.6-3.6h-7.1c-2 0-3.6 1.6-3.6 3.6V75H6.2c-2 0-3.6 1.6-3.6 3.6 0 .9.4 1.9 1 2.5L21.5 99c1.4 1.4 3.7 1.4 5.1 0l17.9-17.9c1.4-1.4 1.4-3.7 0-5.1-.8-.6-1.7-1-2.6-1zM97.3 39.3L84.5 1.8C84.2.7 83.1 0 82 0h-8.8C72 0 71 .7 70.6 1.8L57.8 39.3c-.5 1.4.3 2.9 1.7 3.4.3.1.6.1.8.1h8c1.2 0 2.2-.8 2.6-1.9l1.8-6.3h9.6l1.9 6.3c.3 1.1 1.4 1.9 2.6 1.9h8c1.5 0 2.7-1.1 2.7-2.6-.1-.2-.1-.6-.2-.9zM76.1 23.5l1.5-5.1 1.5 5.1h-3z"
  />
</svg>
