<svg xmlns="http://www.w3.org/2000/svg" viewBox="0 0 100 100">
  <path
    d="M100.1 28.1h-5c-.9 0-1.6-.7-1.8-1.6-.6-5.2-1.9-10.2-3.6-12.7-2-2.8-4-4.4-6.3-5.1-2.3-.6-4.8-1-7.8-1h-14c-1 0-1.8.8-1.8 1.8v73.1c0 2.7.3 4.8.8 6.3s1.8 2.6 3.9 3.5c1.7.7 4.1 1.1 7.2 1.2.9 0 1.7.8 1.7 1.8v2.8c0 1-.8 1.8-1.8 1.8H28.4c-1 0-1.8-.8-1.8-1.8v-2.8c0-.9.7-1.7 1.7-1.8 4.8-.2 7.9-1 9.4-2.5 1.7-1.7 2.5-4.5 2.5-8.5v-73c0-1-.8-1.8-1.8-1.8H26.2c-3.9 0-7.1.3-9.7.9-2.6.6-4.8 2.3-6.8 5.1-1.7 2.5-2.8 7.5-3.2 12.7-.1.9-.8 1.7-1.8 1.7h-3c-1 0-1.8-.8-1.8-1.8V1.8C-.1.8.7 0 1.7 0h96.7c1 0 1.8.8 1.8 1.8l-.1 26.3z"
  />
</svg>
