<svg xmlns="http://www.w3.org/2000/svg" viewBox="0 0 100 100">
  <path
    d="M94.7 94.2c-2.9 0-5.3-2.4-5.3-5.3v-8.2C80.1 92.7 65.6 100 50 100 24.9 100 3.6 81.2.5 56.2l-.3-2.5h10.6l.2 2c2.8 19.2 19.5 33.7 39 33.7 13.8 0 26.7-7.5 33.9-19.2H70.6c-2.9 0-5.3-2.4-5.3-5.3s2.4-5.3 5.3-5.3h24.2c2.5 0 5.2 1.6 5.2 5.3V89c0 2.8-2.4 5.2-5.3 5.2zm-5.4-47.9l-.2-2C86.2 25.1 69.5 10.6 50 10.6c-13.8 0-26.7 7.5-33.9 19.2h13.1c2.9 0 5.3 2.4 5.3 5.3s-2.4 5.3-5.3 5.3h-24C3.1 40.3 0 38.9 0 35.1v-24c0-2.9 2.4-5.3 5.3-5.3s5.3 2.4 5.3 5.3v8.2C19.9 7.3 34.4 0 50 0c25.1 0 46.4 18.8 49.5 43.8l.3 2.5H89.3z"
    fill-rule="evenodd"
    clip-rule="evenodd"
  />
</svg>
