<svg xmlns="http://www.w3.org/2000/svg" viewBox="0 0 40 40">
  <path
    d="M20 37.494c-9.646 0-17.494-7.848-17.494-17.494S10.354 2.506 20 2.506 37.494 10.354 37.494 20 29.646 37.494 20 37.494zM20 0C8.972 0 0 8.972 0 20s8.972 20 20 20 20-8.972 20-20S31.028 0 20 0zm12.25 29.684l-2.216 1.169C28.09 27.168 24.246 24.878 20 24.878s-8.09 2.29-10.034 5.975l-2.216-1.17c2.378-4.509 7.072-7.31 12.25-7.31s9.872 2.801 12.25 7.31zM20 8.89a4.042 4.042 0 014.037 4.037A4.042 4.042 0 0120 16.964a4.042 4.042 0 01-4.037-4.037A4.042 4.042 0 0120 8.89zm0 10.58a6.55 6.55 0 006.543-6.543A6.55 6.55 0 0020 6.384a6.55 6.55 0 00-6.543 6.543A6.55 6.55 0 0020 19.47z"
  />
</svg>
