<?xml version="1.0" encoding="utf-8"?>
<!-- Generator: Adobe Illustrator 24.1.0, SVG Export Plug-In . SVG Version: 6.00 Build 0)  -->
<svg version="1.1" id="Слой_1" xmlns="http://www.w3.org/2000/svg" xmlns:xlink="http://www.w3.org/1999/xlink" x="0px" y="0px"
	 viewBox="0 0 100 100" style="enable-background:new 0 0 100 100;" xml:space="preserve">
<style type="text/css">
	.st0{fill:none;}
</style>
<path class="st0" d="M8.1,50.1c0,10.2,3.7,19.5,9.8,26.8C25.2,67.8,37.1,62,50,62s24.8,5.7,32.1,14.8c6.1-7.2,9.8-16.6,9.8-26.8
	c0-5.8-1.2-11.3-3.3-16.3c-1.9,0.7-3.8,1.1-5.9,1.1c-9.6,0-17.4-7.8-17.4-17.4c0-2.1,0.4-4.1,1.1-5.9c-5-2.1-10.5-3.3-16.3-3.3
	C26.8,8.1,8.1,26.8,8.1,50.1z"/>
<path class="st0" d="M50,70c-10.7,0-20.6,4.9-26.3,12.5c7.1,5.9,16.3,9.4,26.3,9.4c9.9,0,19.1-3.6,26.3-9.4C70.6,74.8,60.7,70,50,70
	z"/>
<path d="M88.6,33.7c2.1,5,3.3,10.5,3.3,16.3c0,10.2-3.7,19.6-9.8,26.8C74.8,67.7,62.9,62,50,62s-24.8,5.8-32.1,14.9
	c-6.1-7.3-9.8-16.6-9.8-26.8c0-23.3,18.7-42,41.9-42c5.8,0,11.3,1.2,16.3,3.3c1-2.6,2.5-5,4.5-6.8C64.5,1.7,57.5,0,50,0
	C22.4,0,0,22.4,0,50s22.4,50,50,50s50-22.4,50-50c0-7.5-1.7-14.5-4.6-20.9C93.5,31.1,91.2,32.7,88.6,33.7z M50,91.9
	c-10,0-19.2-3.5-26.3-9.4C29.4,74.9,39.3,70,50,70s20.6,4.8,26.3,12.5C69.1,88.3,59.9,91.9,50,91.9z"/>
<path class="st0" d="M50,70c-10.7,0-20.6,4.9-26.3,12.5c7.1,5.9,16.3,9.4,26.3,9.4c9.9,0,19.1-3.6,26.3-9.4C70.6,74.8,60.7,70,50,70
	z"/>
<path d="M50,18c-10.9,0-19.8,8.8-19.8,19.8S39.1,57.6,50,57.6s19.8-8.8,19.8-19.8S60.9,18,50,18z M50,49.5
	c-6.4,0-11.7-5.3-11.7-11.7S43.6,26.1,50,26.1s11.7,5.3,11.7,11.7S56.4,49.5,50,49.5z"/>
<path d="M90.7,18.9H74.5c-0.3,0-0.6-0.3-0.6-0.6V16c0-0.3,0.3-0.6,0.6-0.6h16.1c0.3,0,0.6,0.3,0.6,0.6v2.3
	C91.3,18.7,91.1,18.9,90.7,18.9z"/>
<path d="M98.8,23.8c0.2-0.5,0.4-1,0.5-1.5c0-0.1,0-0.1,0-0.2c0.1-0.5,0.3-0.9,0.3-1.4c0-0.1,0-0.2,0-0.3c0.1-0.4,0.2-0.9,0.2-1.4
	c0-0.1,0-0.1,0-0.2c0-0.5,0.1-1,0.1-1.5C100,7.8,92.2,0,82.6,0C73,0,65.3,7.8,65.3,17.4c0,9.6,7.8,17.4,17.4,17.4
	C90,34.7,96.2,30.2,98.8,23.8C98.8,23.8,98.8,23.8,98.8,23.8z M82.6,30.6c-7.3,0-13.2-5.9-13.2-13.2c0-7.3,5.9-13.2,13.2-13.2
	c7.3,0,13.2,5.9,13.2,13.2C95.8,24.7,89.9,30.6,82.6,30.6z"/>
</svg>
