<?xml version="1.0" encoding="utf-8"?>
<!-- Generator: Adobe Illustrator 24.1.0, SVG Export Plug-In . SVG Version: 6.00 Build 0)  -->
<svg version="1.1" id="Слой_1" xmlns="http://www.w3.org/2000/svg" xmlns:xlink="http://www.w3.org/1999/xlink" x="0px" y="0px"
	 viewBox="0 0 100 100" style="enable-background:new 0 0 100 100;" xml:space="preserve">
<path d="M50,18c-10.9,0-19.8,8.8-19.8,19.8S39.1,57.6,50,57.6s19.8-8.8,19.8-19.8S60.9,18,50,18z M50,49.5
	c-6.4,0-11.7-5.3-11.7-11.7S43.6,26.1,50,26.1s11.7,5.3,11.7,11.7S56.4,49.5,50,49.5z"/>
<g>
	<path d="M82.2,76.7c0,0-0.1,0.1-0.1,0.1C74.8,67.7,62.9,62,50,62c-6.5,0-12.7,1.5-18.2,4c-1.4,0.6-2.7,1.4-4,2.1s-2.5,1.6-3.7,2.5
		c-1.2,0.9-2.3,1.9-3.3,2.9c-1,1-2,2.1-2.9,3.3c1.7,2.1,3.7,4,5.8,5.6c0,0,0,0,0,0c0,0,0,0,0,0C29.4,74.9,39.3,70,50,70
		s20.6,4.8,26.3,12.5c0,0,0,0,0,0c0,0,0,0,0.1,0C78.5,80.8,80.5,78.9,82.2,76.7C82.2,76.7,82.2,76.7,82.2,76.7z"/>
	<path d="M50,0C22.4,0,0,22.4,0,50c0,27.6,22.4,50,50,50s50-22.4,50-50C100,22.4,77.6,0,50,0z M50,91.9C26.9,91.9,8.1,73.1,8.1,50
		C8.1,26.9,26.9,8.1,50,8.1c23.1,0,41.9,18.8,41.9,41.9C91.9,73.1,73.1,91.9,50,91.9z"/>
</g>
</svg>
