<svg
  xmlns="http://www.w3.org/2000/svg"
  viewBox="0 0 100 100"
  style="enable-background: new 0 0 100 100"
  xml:space="preserve"
>
  <path
    d="M1.2 24.6c2.9 0 4.3 2.1 6 4.4 1.8 2.6 3.4 5.4 7.6 5.4s6.2-2.9 8-5.4c1.7-2.4 3.1-4.4 6-4.4s4.3 2.1 6 4.4c1.8 2.5 3.8 5.4 8 5.4s6.2-2.9 8-5.4c1.7-2.4 3.1-4.4 6-4.4s4.3 2.1 6 4.4c1.8 2.5 3.9 5.4 8 5.4 4.2 0 6.2-2.9 8-5.4 1.7-2.4 3.1-4.4 6-4.4s4.3 2.1 6 4.4c1.8 2.5 3.9 5.4 8 5.4.7 0 1.2-.5 1.6-1.2 0-.7-.5-1.2-1.2-1.2-2.9 0-4.3-2.1-6-4.4-1.8-2.5-3.9-5.4-8-5.4-4.2 0-6.2 2.9-8 5.4-1.7 2.4-3.1 4.4-6 4.4s-4.3-2.1-6-4.4c-1.8-2.5-3.8-5.4-8-5.4s-6.2 2.9-8 5.4c-1.7 2.4-3.1 4.4-6 4.4s-4.3-2.1-6-4.4c-1.8-2.5-3.8-5.4-8-5.4s-6.2 2.9-8 5.4c-1.7 2.4-3.1 4.4-6 4.4s-4.3-2.1-6-4.4c-1.8-2.5-3.9-5.4-8-5.4-.7 0-1.2.5-1.2 1.2s.5 1.2 1.2 1.2z"
    style="fill: #3c80f1"
  />
  <path
    d="M6.8 50.7c1.8 2.5 3.8 5.4 8 5.4s6.2-2.9 8-5.4c1.7-2.4 3.1-4.4 6-4.4s4.3 2.1 6 4.4c1.8 2.5 3.8 5.4 8 5.4s6.2-2.9 8-5.4c1.7-2.4 3.1-4.4 6-4.4s4.3 2.1 6 4.4c1.8 2.5 3.9 5.4 8 5.4 4.2 0 6.2-2.9 8-5.4 1.7-2.4 3.1-4.4 6-4.4s4.3 2.1 6 4.4c1.8 2.5 3.9 5.4 8 5.4.7 0 1.2-.5 1.2-1.2s-.5-1.2-1.2-1.2c-2.9 0-4.3-2.1-6-4.4-1.8-2.5-3.9-5.4-8-5.4-4.2 0-6.2 2.9-8 5.4-1.7 2.4-3.1 4.4-6 4.4s-4.3-2.1-6-4.4c-1.8-2.5-3.9-5.4-8-5.4-4.2 0-6.2 2.9-8 5.4-1.7 2.4-3.1 4.4-6 4.4s-4.3-2.1-6-4.4c-1.8-2.5-3.8-5.4-8-5.4s-6.2 2.9-8 5.4c-1.7 2.4-3.1 4.4-6 4.4s-4.3-2.1-6-4.4c-1.8-2.5-3.9-5.4-8-5.4-.7 0-1.2.5-1.2 1.2s.5 1.2 1.2 1.2c2.9 0 4.3 2.1 6 4.4z"
    style="fill: #ff3e33"
  />
  <path
    d="M99.2 75.4c-2.9 0-4.3-2.1-6-4.4-1.8-2.5-3.9-5.4-8-5.4-4.2 0-6.2 2.9-8 5.4-1.7 2.4-3.1 4.4-6 4.4s-4.3-2.1-6-4.4c-1.8-2.5-3.9-5.4-8-5.4-4.2 0-6.2 2.9-8 5.4-1.7 2.4-3.1 4.4-6 4.4s-4.3-2.1-6-4.4c-1.8-2.5-3.8-5.4-8-5.4s-6.2 2.9-8 5.4c-1.7 2.4-3.1 4.4-6 4.4s-4.3-2.1-6-4.4c-1.8-2.5-3.9-5.4-8-5.4-.7 0-1.2.5-1.2 1.2S.5 68 1.2 68c2.9 0 4.3 2 5.8 4.4 1.8 2.5 3.8 5.4 8 5.4s6.2-2.9 8-5.4c1.7-2.4 3.1-4.4 6-4.4s4.3 2.1 6 4.4c1.8 2.5 3.8 5.4 8 5.4s6.2-2.9 8-5.4c1.7-2.4 3.1-4.4 6-4.4 2.8 0 4.3 2 5.8 4.4 1.8 2.5 3.9 5.4 8 5.4 4.2 0 6.2-2.9 8-5.4 1.7-2.4 3.1-4.4 6-4.4s4.3 2.1 6 4.4c1.8 2.5 3.9 5.4 8 5.4.7 0 1.2-.6 1.6-1.2 0-.7-.5-1.2-1.2-1.2z"
    style="fill: #ffd354"
  />
</svg>
